<?xml version="1.0" encoding="utf-8"?>
<!-- Generator: Adobe Illustrator 21.0.1, SVG Export Plug-In . SVG Version: 6.00 Build 0)  -->
<svg version="1.1"
	 id="svg8" inkscape:version="0.92.0 r" sodipodi:docname="hori.svg" xmlns:cc="http://creativecommons.org/ns#" xmlns:dc="http://purl.org/dc/elements/1.1/" xmlns:inkscape="http://www.inkscape.org/namespaces/inkscape" xmlns:rdf="http://www.w3.org/1999/02/22-rdf-syntax-ns#" xmlns:sodipodi="http://sodipodi.sourceforge.net/DTD/sodipodi-0.dtd" xmlns:svg="http://www.w3.org/2000/svg"
	 xmlns="http://www.w3.org/2000/svg" xmlns:xlink="http://www.w3.org/1999/xlink" x="0px" y="0px" viewBox="0 0 595.3 841.9"
	 style="enable-background:new 0 0 595.3 841.9;" xml:space="preserve">
<style type="text/css">
	.st0{fill:#00BDCC;}
	.st1{fill:#440AFB;}
	.st2{fill:#076900;}
	.st3{fill:#F200D8;}
	.st4{fill:#00C21C;}
	.st5{fill:#002399;}
	.st6{fill:#4A00FB;}
	.st7{fill:#E1FF52;}
	.st8{fill:#F54400;}
</style>
<sodipodi:namedview  bordercolor="#666666" borderopacity="1.0" id="base" inkscape:current-layer="layer1" inkscape:cx="599.31187" inkscape:cy="256.3687" inkscape:document-units="mm" inkscape:pageopacity="0.0" inkscape:pageshadow="2" inkscape:window-height="1059" inkscape:window-maximized="0" inkscape:window-width="1920" inkscape:window-x="0" inkscape:window-y="0" inkscape:zoom="1.4" pagecolor="#ffffff" showgrid="false">
	</sodipodi:namedview>
<g id="layer1" inkscape:groupmode="layer" inkscape:label="Layer 1">
	<g id="XMLID_1_">
		<g>
			<path d="M540.1,684.9c2.1,8.7,2.2,9.7,0.6,15.1c-1.9,6.4-4.6,11.1-6.3,11.1c-0.6,0,0-1.6,1.4-3.5c2.1-2.8,2.7-5.3,3-12.8
				c0.3-8.2,0-10-2.5-15.1c-3.7-7.4-17.9-24.3-26.3-31.4c-10.2-8.7-19.5-15.2-19.5-13.8c0,0.7,1.4,4.2,3.2,7.6
				c6.5,12.8,8.6,21.2,8.5,33.4c-0.1,12.3-2.3,20.1-10.2,35.8c-2.1,4.2-3.8,8.5-3.8,9.6c0,2.4,10.7,15.5,15.5,19.1
				c5.3,3.9,16.4,6.3,26.4,5.7c4.8-0.3,8.4-0.1,8.1,0.5c-0.3,0.5-1.4,0.9-2.5,1c-1,0-4.7,1.4-8.1,3c-5.6,2.7-7.5,3-18.6,3.1
				c-8.1,0-13.7-0.5-16.1-1.5c-2-0.9-4-1.3-4.3-1c-0.3,0.3,1.2,3.6,3.3,7.3c4.7,8,7.6,19.4,7.7,30.2c0.1,8.5-2,19.3-4,20.5
				c-0.8,0.5-0.9,0-0.4-1.4c0.5-1.2,1.4-5.7,2.1-10.1c0.2-1.2,0.3-2.4,0.4-3.8c0.3,0.2,0.4-0.4,0.2-2c0-0.2,0-0.4-0.1-0.6v0
				c0.1-8.5-1.3-18.8-3.6-23.1c-0.9-1.8-1.7-3.8-1.7-4.5c0-0.7-2.3-4.7-5-8.8c-3.4-5-4.4-7.3-3.1-6.9c13.2,4.1,29.1,5.3,37.4,2.9
				l5.1-1.5l-5.1-1c-9-1.7-17.3-4.6-23.1-8c-5.1-3-18.6-15.1-18.6-16.7c0-0.4,3,2.3,6.7,5.9c8.2,7.9,10.7,8.5,4.8,1.1
				c-6.7-8.5-19.8-37.4-17.8-39.3c0.3-0.3,0.9,0.3,1.3,1.5c1.6,5.1,8.9,22.6,10.1,24.4c1.2,1.8,1.5,1.7,2.8-1.1
				c8.2-17.4,12.4-31.4,12.4-40.8c0-7.1-3.9-24.4-6-27c-0.8-1-3.1-4.6-5-8.1c-3.3-5.9-9.2-12.3-15.9-17.1c-1.6-1.1,0.7-0.2,5.1,2.1
				c19.3,10.2,37.2,24.4,47.5,37.9c2.8,3.7,5.3,6.5,5.6,6.2c0.6-0.6-4.7-10.2-9.6-17.1c-14.3-20.5-34.1-38.8-58.1-54
				c-9.8-6.2-18.6-13.1-18.6-14.6c0-0.7,0.6-0.5,1.4,0.4c1.9,2.4,12.7,10.1,14.1,10.1c0.6,0,1.4,0.6,1.7,1.4
				c0.3,0.8,0.9,1.1,1.3,0.7c0.4-0.4-0.3-3.7-1.6-7.3l-2.4-6.6l0.7,5.6c0.4,3.1,0.5,5.4,0.1,5.1c-2.1-2.1-6.9-29.5-8.1-46.2
				l-0.5-7.3l1.9,8.7c1,4.8,2.2,8.7,2.7,8.7c0.5,0,1.1-1.9,1.4-4.2c0.3-2.3,2-13.5,3.7-24.8l3.1-20.5h0.3
				c-0.1,12.6-1.3,25.4-3.5,38.8c-3.6,21.4-3.5,22.5,2.6,42.2l3.1,10.1l8,5.5C508.8,626.9,533.4,657.7,540.1,684.9z"/>
			<path class="st0" d="M522.1,651.9c4.9,7,10.2,16.5,9.6,17.1c-0.3,0.3-2.8-2.5-5.6-6.2c-10.4-13.5-28.3-27.7-47.5-37.9
				c-4.3-2.3-6.6-3.3-5.1-2.1c6.7,4.9,12.6,11.2,15.9,17.1c2,3.5,4.2,7.1,5,8.1c2.2,2.6,6,19.9,6,27c0,9.5-4.2,23.4-12.4,40.8
				c-1.3,2.8-1.6,2.9-2.8,1.1c-1.2-1.8-8.4-19.3-10.1-24.4c-0.4-1.2-1-1.9-1.3-1.5c-2,2,11.1,30.8,17.8,39.3
				c5.9,7.4,3.4,6.9-4.8-1.1c-3.7-3.6-6.7-6.3-6.7-5.9c0,1.6,13.5,13.7,18.6,16.7c5.8,3.4,14.1,6.2,23.1,8l5.1,1l-5.1,1.5
				c-8.3,2.4-24.2,1.2-37.4-2.9c-1.3-0.4-0.3,1.9,3.1,6.9c2.8,4.1,5,8.1,5,8.8c0,0.7,0.8,2.8,1.7,4.5c2.3,4.4,3.7,14.6,3.6,23.1
				c-0.6-3.4-3.5-11.2-5.2-15c-3.5-7.8-12.9-20.9-15-20.9c-0.7,0-0.4,1.1,0.6,2.5c1,1.4,2.7,3.7,3.7,5.1c4.9,6.8,2.8,18.7-6.4,36.7
				c-3.2,6.3-6.8,13.1-7.3,14.8c-1.3-3-2.5-6-3.1-7.8c-4.1-12.7-4.2-12.9-3.5-7.3c0.4,2.8,2.3,9.2,4.3,14.3
				c4.1,10.4,3.3,10.8-4.7,2.2c-2.6-2.8-5.1-5.3-5.6-5.6c-0.5-0.3-0.8,2.7-0.6,6.8c0.4,7.5-1.1,9.1-2.6,2.9
				c-1.1-4.5-6.6-16.1-7.6-16.1c-0.5,0-0.4,1.1,0.1,2.5c1,2.7-0.4,9.2-2.7,12.5c-0.7,1-1-0.5-1.2-2c0.2-0.8,0.2-2.6,0-4.6
				c-0.3-3.3,0.1-8.3,1.2-12.2c1-3.6,2.7-12.5,4-19.7c0.7-3.8,1.4-8,2-11.6l2.7,0.7c-0.7,2.7-1.4,5.1-2,6.9
				c-0.6,1.6-0.4,1.8,0.6,0.9c2.5-2.3,7.1-17.7,7.7-26c0.4-5.3,1.1-8.2,1.9-7.9c2,0.6,3.1,14.6,2.6,31.8
				c-0.3,10.1-0.1,13.7,0.4,10.1c1.9-12.2,0.7-42.8-2-49c-0.4-0.9-1.4-4-2.1-6.8l-1.4-5.1l-2.3-0.1c0.2-6.1,0.3-13.1,0.3-21.9
				c0-27.5-0.2-30.6-2.5-39.3c-3.3-12.3-7.2-19.9-11.3-22c-5.3-2.7-5-5.2,1.3-11.4c3.1-3,6.8-8.2,8.3-11.4c2.5-5.4,2.6-6.1,1.1-9.6
				c-0.9-2.1-5-7.3-9.1-11.6c-5.9-6.2-7.4-8.6-7.4-11.3c0-2.3,0.3-4.9,0.7-7.6c1-5.6,2.8-11.6,5-16.1c4.1-8.3,5.3-17.9,3.2-26.5
				c-0.8-3.3-1.9-6.5-2.4-7.2c-0.5-0.7-2-2.6-3.3-4.2c-1.5-2-3.9-3.4-6.9-4c-3.6-0.7-5.3-1.9-8.1-5.7c-3.3-4.6-3.5-5.5-4.4-20.3
				c-2.3-38.5-12.3-77.4-23.3-90.4c-1.3-1.6-0.4,1,2.3,6.2c18.4,35.7,24.4,94.1,15.6,152.1c-2.9,19.4-15.5,53.5-26.1,70.7
				c-3.3,5.5-5,5.9-3.5,1.9c0.3-0.8,0.7-1.7,1.3-2.8c3.6-7.3,12.9-37.7,14.4-47.1c0.4-2.5,1-5.3,1.3-6.2c0.4-0.9,0.8-2.5,0.9-3.4
				c3.1-18.5,3.9-24.4,4.6-31c1.3-13-0.5-7.6-2.5,7.4c-1,7.7-2.5,15.5-3.4,17.4c-1.4,3-1.5,1.7-1.1-12.7c0.5-15.1-0.5-20.2-2-10.7
				c-1.4,8.8-8,20.1-16.3,29c0.8-2.3,1.6-5.5,2.1-7c0.7-2.3,2-5.7,2.8-7.6c2.3-5.3,7.1-26.1,8.3-36.1c2-16.3,2.7-40.2,1.6-56.3
				l-1-15.8l-0.8,32.7c-0.3,13.4-0.6,25.6-0.8,31.5l-2.8-0.1c0-0.7-0.3-2.1-0.9-3.7c-0.7-2-1.5-3.4-1.7-3.2
				c-0.3,0.3,0.1,2.1,0.8,4.1c0.3,0.9,0.7,1.7,0.9,2.3l-1.6,0.5c-0.6-1.2-1.3-2.5-2.1-4.1c-7.8-15.8-19.1-49.2-22.1-65.2
				c-0.1-0.7-0.3-1.4-0.4-2c-0.9-5.1-0.6-6.3,1.3-10c2.7-5.2,7.1-20.6,6-20.5c-0.4,0-2,3.8-3.4,8.3c-2.5,7.8-14.5,33.1-17.5,36.8
				c-0.8,0.9-2.1,3.1-2.9,4.8c-2,4-3.7,4-2.2,0c4.2-10.8,9-31.1,8.8-37.3c-0.1-2.9-0.5-1.7-1.6,4.3c-2.5,14.6-8.9,35.2-15.5,49.6
				c-6.4,13.9-9.1,19.2-9.8,19.2c-1.6,0-3.3-2.7-2.5-3.9c1.3-1.8,6.4-14.7,9.6-24.3c4.5-13.4,8.4-29.9,9-37.5c0.3-3.9,0.3-5.8,0-4.2
				c-3,14.9-7.8,32.8-9.7,36.5c-3.1,6.2-10.2,14.7-18.8,22.7c-10.3,9.6-13.7,11.9-16.4,11.1c-4.4-1.3-4.3-2.6,0.3-6.8
				c2.6-2.3,4.7-4.7,4.7-5.4s-2.5,1.3-5.5,4.2c-4.4,4.3-6,5.3-8,4.6c-2.3-0.7-1.9-1.3,4.7-8.3c7.4-7.7,19.4-23,24.9-31.5
				c4.8-7.4,2.7-5.6-3.3,2.8c-6.3,8.9-15.3,19.6-24,28.7c-5.8,6.1-9.1,8-9.1,5.4c0-0.6-0.5-1.1-1.1-1.1s-1.1,0.8-1.1,1.7
				s0.6,1.7,1.4,1.7c1.9,0-5.2,7.1-12.2,12.1c-3.3,2.4-6,4.7-6,5.2c0,0.2,0.3,0.2,0.7,0l0.8,1.7c-8.4,4.2-16.9,7.2-22.7,7.9
				l-4.9,0.6l2-5c1.1-2.7,3.9-8.4,6.3-12.5c2.4-4.2,4.3-8,4.3-8.4c0-1.3-5.1,6.5-7.3,11.3c-1.5,3.2-2.3,3.9-3,2.8
				c-0.5-0.7-0.7-1-0.8-0.8l-2.7-0.3c0.2-2,0.5-4.2,0.8-6.5l2.1,0.3c-0.3,2-0.2,3.2,0.1,2.9c0.4-0.4,1.2-3.2,1.8-6.2
				c3.7-19.9,11.6-47.3,15.4-53.2c0.9-1.5,1.4-2.9,1-3.3c0,0-0.1,0-0.1,0l0.9-1.4c0.3,0.1,0.8-0.5,1.3-1.7c0.4-1,0.2-1.5-0.4-1.1
				c-0.2,0.1-0.4,0.3-0.6,0.6l-2.2-0.4c2.6-4.1,5.3-6.8,11.5-12c5.4-4.5,11.7-9.4,14-11s4.3-3.3,4.3-3.9c0-1.3-1-0.7-9,5.1
				c-24.6,17.9-48.9,42.5-60,60.7c-5.4,8.8-5.5,5.4-0.2-5c11.6-22.7,31-45,52.4-60.1c9.1-6.4,27.8-15.9,33.9-17.1
				c1.8-0.4,3.6-1.1,3.9-1.6c0.8-1.3,0.8-1.3-6.3,0.8c-14.3,4.2-30.6,13.5-43.7,25c-3.9,3.4-7,5.6-7,5c0-2.3,15.3-17.5,24.6-24.5
				c21.2-15.9,42-23.6,61.8-22.9c8.2,0.3,10.1,0.1,9.2-1c-0.9-1.1,2.9-1.4,18.4-1.4c33.3,0,40.9,2.3,54.2,16
				c4.4,4.5,8.3,8.6,8.8,9.1c0.5,0.5,4.9,4.8,9.8,9.6c7.6,7.5,9.3,9.8,12,17.1c5.3,13.8,10.6,37.4,13.3,58.9l2.5,20.1l-3.1,20.5
				c-1.7,11.3-3.4,22.4-3.7,24.8c-0.3,2.3-1,4.2-1.4,4.2c-0.5,0-1.7-3.9-2.7-8.7l-1.9-8.7l0.5,7.3c1.2,16.7,6,44.1,8.1,46.2
				c0.3,0.3,0.3-2-0.1-5.1l-0.7-5.6l2.4,6.6c1.3,3.6,2,6.9,1.6,7.3c-0.4,0.4-1,0.1-1.3-0.7c-0.3-0.8-1-1.4-1.7-1.4
				c-1.4,0-12.2-7.7-14.1-10.1c-0.8-1-1.4-1.2-1.4-0.4c0,1.5,8.8,8.4,18.6,14.6C488.1,613.1,507.8,631.5,522.1,651.9z M492.2,684.6
				c2.4-10.9,3.1-20.4,2.1-27.9c-0.9-6.6-1-6.1-1.7,8.7c-0.6,11.5-1.6,18.7-3.7,26.5c-1.6,5.9-2.9,11.5-2.8,12.4
				C486.2,706.6,490.3,693.3,492.2,684.6z M450.5,486.8c0.2-27.5,0.2-27.6-0.6-7.3c-0.9,21.2-2.7,44.4-4.1,49.8
				c-0.4,1.7-0.5,2.9-0.1,2.6c0.4-0.3,1.5-4.4,2.6-9C449.8,516.4,450.3,508,450.5,486.8z M446.1,517.5c0.3-0.8,0.3-2,0-2.8
				c-0.3-0.8-0.6-0.1-0.6,1.4S445.8,518.3,446.1,517.5z M445.4,521.8c0-3.6-0.6-2.7-1.5,2.2c-0.5,2.8-0.4,3.4,0.4,2.3
				C444.9,525.3,445.4,523.3,445.4,521.8z M431.7,499.2c0.9,0-1.1-13.9-2.6-18.5c-0.8-2.5-2.4-7.5-3.5-11.1c-1.1-3.6-2.2-6.3-2.5-6
				c-0.3,0.3,0.8,4.7,2.5,9.7c1.6,5.1,3.6,13,4.3,17.5C430.7,495.5,431.5,499.2,431.7,499.2z M417.7,452.9c1.1,1.8,1.8,1.4,1-0.5
				c-0.4-1-0.9-1.5-1.2-1.2C417.2,451.5,417.3,452.3,417.7,452.9z M385.9,504.6c2.4,4.6,2,2-0.9-6c-2.5-7-8.2-27.2-11.5-41.1
				l-1.2-5.1l0.6,5.4C373.9,467.4,382.3,497.7,385.9,504.6z M371.7,451.6c0.4-0.4,0.4-1.4,0.1-2.2c-0.4-0.9-0.6-0.6-0.7,0.7
				C371,451.3,371.3,451.9,371.7,451.6z M347.3,396.5c3.4-1.1,5.1-2,3.7-2.1c-1.4-0.1-5.4,1-9,2.3c-5.3,2-8.5,4.4-16.7,12.7
				c-17.8,17.9-33.9,46.6-40.4,72c-0.9,3.6-2,7.1-2.4,7.9c-0.4,0.8,0.1,0.4,1.1-0.8c1-1.2,1.8-3.1,1.8-4.2c0-3.1,7.4-22.2,13.1-33.8
				c8.4-17.1,15.5-27.4,27.3-39.7C333.4,402.9,339,399.2,347.3,396.5z M337.2,392.7c6.7-1.2,7.5-1.5,3.9-1.6
				c-6.6-0.2-17.2,2.9-23.8,6.8c-3.2,1.9-10.6,7.7-16.5,12.8c-12.5,10.9-22.5,24.1-29.3,38.5c-4.8,10.2-16,43.1-17.3,50.7
				c-0.4,2.4-1,5.3-1.3,6.6c-0.4,1.8-0.3,1.9,0.5,0.6c0.6-0.9,1.4-3.7,1.8-6.2c0.9-5,10.2-33.2,14.6-44.4
				c8.3-20.9,22-38.3,41.7-52.9C320.6,397.2,326.7,394.5,337.2,392.7z M262.2,515c0.4-0.6-0.1-0.8-1.1-0.5c-1,0.4-1.8,0.9-1.8,1.1
				C259.4,516.6,261.6,516.1,262.2,515z"/>
			<path d="M498.1,791.6c0.2,1.6,0.1,2.2-0.2,2c0.1-0.8,0.1-1.7,0.1-2.6C498.1,791.2,498.1,791.4,498.1,791.6z"/>
			<path d="M498,791L498,791c0,0.9,0,1.8-0.1,2.6c-0.6-0.4-2-3.9-4-9.8c-1.9-5.6-4.4-11.3-5.4-12.7c-1.9-2.5-1.9-2.4-2.1,3.4
				c-0.1,3.3-1,8.4-2.1,11.5c-2.1,6.1-13.8,27.1-15.7,28.4c0-0.1-0.1-0.2-0.1-0.3c0.5-1.6,4.1-8.5,7.3-14.8
				c9.2-18,11.3-29.9,6.4-36.7c-1-1.4-2.7-3.7-3.7-5.1c-1-1.4-1.3-2.5-0.6-2.5c2,0,11.4,13.2,15,20.9
				C494.6,779.7,497.4,787.6,498,791z"/>
			<path d="M494.3,656.7c1,7.5,0.3,17-2.1,27.9c-1.9,8.6-6,21.9-6.1,19.7c0-0.9,1.2-6.5,2.8-12.4c2.1-7.8,3.1-15,3.7-26.5
				C493.3,650.6,493.4,650.1,494.3,656.7z"/>
			<path d="M479.5,829.6c2.4,1.3,4.1,2.6,3.8,2.9c-1.1,1.1-13.2-6.7-20-13l-6.6-6v7.5c0,7.3-1.9,14.3-4.4,15.8
				c-0.7,0.4-0.4-1.5,0.6-4.2c1.7-4.5,1.7-5.3,0.1-8.8c-1-2.1-2.3-5.7-3.1-8c-1.5-4.7-3.4-6.6-3.4-3.4c0,2.5-5.5,13.8-6.6,13.8
				c-0.4,0-0.6-1.9-0.3-4.2c0.2-1.6,0.6-4.7,1-6.3c0.1,0.3,0.2,0.6,0.3,0.9c0.2,0.6,0.4,0.6,0.5,0.1c0.2,1.5,0.5,3,1.2,2
				c2.3-3.3,3.7-9.8,2.7-12.5c-0.5-1.4-0.5-2.5-0.1-2.5c1,0,6.4,11.5,7.6,16.1c1.5,6.2,3,4.6,2.6-2.9c-0.2-4,0-7.1,0.6-6.8
				c0.5,0.3,3,2.8,5.6,5.6c7.9,8.6,8.8,8.2,4.7-2.2c-2-5.1-4-11.5-4.3-14.3c-0.7-5.5-0.6-5.3,3.5,7.3c0.6,1.9,1.8,4.9,3.1,7.8
				c-0.1,0.2-0.1,0.4,0,0.4c0,0,0.1,0,0.2-0.1c0.8,1.8,1.7,3.6,2.5,5.2C474.2,825.7,476,827.8,479.5,829.6z"/>
			<path d="M468.5,814.2c0,0.1,0.1,0.2,0.1,0.3c-0.1,0-0.1,0.1-0.2,0.1C468.4,814.6,468.4,814.4,468.5,814.2z"/>
			<path d="M458.3,450.6c4.8,19.5,7.1,37.8,7,56.6H465l-2.5-20.1c-2.7-21.4-8-45.1-13.3-58.9c-2.8-7.3-4.4-9.6-12-17.1
				c-4.9-4.8-9.2-9.1-9.8-9.6c-0.5-0.5-4.5-4.6-8.8-9.1c-13.3-13.7-20.9-16-54.2-16c-15.5,0-19.3,0.3-18.4,1.4c0.9,1.1-1,1.3-9.2,1
				c-19.8-0.7-40.6,7-61.8,22.9c-9.3,7-24.6,22.2-24.6,24.5c0,0.6,3.2-1.7,7-5c13.1-11.4,29.4-20.7,43.7-25c7-2.1,7.1-2.1,6.3-0.8
				c-0.3,0.5-2.1,1.3-3.9,1.6c-6,1.2-24.7,10.6-33.9,17.1c-21.4,15.1-40.8,37.4-52.4,60.1c-5.3,10.4-5.1,13.8,0.2,5
				c11.1-18.2,35.4-42.8,60-60.7c8-5.8,9-6.4,9-5.1c0,0.6-1.9,2.3-4.3,3.9s-8.7,6.5-14,11c-6.2,5.2-8.9,7.9-11.5,12
				c-0.9,1.4-1.7,2.9-2.6,4.7c-5.3,10.2-12,29-13.6,38.1c-0.6,3.5-1.9,12.6-2.9,20.7c-0.3,2.3-0.6,4.5-0.8,6.5
				c-0.4,3.4-0.7,6-0.8,7.3l-0.7,0c0.1-1.3,0.1-2.7,0.1-4.3c0.5-24.1,6.1-47.4,15.9-65.9c2.1-4,3.7-7.4,3.5-7.6
				c-0.7-0.7-24.8,24.8-30.1,31.8c-5.4,7-11.3,16.4-12.8,20.3c-0.5,1.2-1.3,5-1.8,8.5l-0.9,6.2l-0.1-6.3
				c-0.4-16.5,10.5-38.9,29.4-60.5c3.3-3.7,7.7-9.7,9.9-13.3c5.3-8.7,19.7-22.9,30.9-30.3c26-17.2,44.2-21.6,89.1-21.4
				c31.7,0.1,38.2,2.1,51.5,15.5c3,3,5.7,6.4,6,7.5c0.4,1.1,3.1,3.6,6.2,5.6C445.5,412.2,451.4,422.7,458.3,450.6z"/>
			<path d="M460.4,735.9c2.7,6.2,3.9,36.9,2,49c-0.6,3.6-0.7-0.1-0.4-10.1c0.5-17.2-0.6-31.1-2.6-31.8c-0.8-0.3-1.5,2.6-1.9,7.9
				c-0.6,8.3-5.2,23.7-7.7,26c-1,0.9-1.2,0.7-0.6-0.9c0.6-1.8,1.4-4.2,2-6.9c1.8-6.8,3.5-15.2,3.9-20c0.5-5.3,1.2-7.6,2.2-7.6
				c1.6,0,2.1-2.4,0.8-3.8c-0.4-0.4-0.9-3.7-1-7.2l-0.3-6.5l1.4,5.1C459,731.9,460,735,460.4,735.9z"/>
			<path class="st0" d="M458.2,737.8c1.3,1.3,0.8,3.8-0.8,3.8c-1.1,0-1.7,2.3-2.2,7.6c-0.4,4.8-2.1,13.2-3.9,20l-2.7-0.7
				c0.6-3.1,1.1-5.8,1.4-7.2c0.1-0.4,0.2-0.8,0.3-1.2c2.7-13.3,3.9-22.2,4.4-36l2.3,0.1l0.3,6.5
				C457.3,734.1,457.8,737.4,458.2,737.8z"/>
			<path d="M452.3,662.8c2.4,8.7,2.6,11.8,2.5,39.3c0,8.8-0.1,15.8-0.3,21.9c-0.5,13.8-1.7,22.8-4.4,36l-1.6-0.3
				c3.2-15.9,4.9-74.7,2.6-92.7c-1.4-10.5-7.3-22.4-12.5-24.9c-7.2-3.5-8.1-3.1-22.8,11.1c-4.7,4.5-8.1,7-8.9,6.5
				c-0.8-0.5-1.1-0.4-0.7,0.3c0.4,0.6-3.3,5.2-8.1,10.3c-8.3,8.7-16.9,20.2-20.8,27.9c-2.5,5.1-9.2,32.9-8.2,34.1
				c0.2,0.2,4.3-3.6,9.2-8.4c11.4-11.1,32-30.1,44.4-40.9c5.3-4.6,10.3-9,11.1-9.9c0.9-0.8,1.8-1.2,2.2-0.9c0.8,0.8,0.5,1-17.8,17
				c-17.2,15-48.7,44.3-50,46.3c-0.5,0.8-1.8,1.5-2.9,1.5c-5,0-10.7,10.2-21.8,39.5c-7.4,19.4-8.3,21.6-6.4,21.3l0.3,1.7
				c-3,0.5-5.8,1.1-8,1.9c-2,0.7-3.4,2.2-4.9,6l-1.4-0.4c0.5-1.3,1-2.4,1.4-3.1c0.8-1.4,3-3.2,5.1-4.1c2.7-1.1,4.3-2.9,5.6-6.2
				c1-2.6,1.9-5.2,1.9-5.9c0-1.4-74.8-1-76.2,0.5c-0.5,0.5-0.4,2.2,0.2,3.9l1.1,3.1l26.5-0.4l26.5-0.4l3.3,3.4
				c2.1,2.2,2.8,3.2,2.9,5.6l-0.7,0l-3.6-3.6l-3.6-3.6l-9.8,0.1l-15.1,0.1c-16.4,0.1-25.3,0.6-26.1,1.4c-0.7,0.7-2.2,4.9-3.3,9.4
				c-1.1,4.5-2.5,9.9-3.1,12.1c-0.6,2.2-1.1,6.2-1.1,9c-0.1,7.2-1.1,12.8-2.5,13.5h0h-0.6c-0.7-0.3-0.6-2.3,0.4-7.5
				c0.8-4.2,1.5-9.4,1.5-11.7c0-2.2,1.6-9.2,3.5-15.5l3.5-11.5l-3.2-4.6c-4.1-5.9-9.9-10.7-14.4-11.8c-1.9-0.5-8.6-0.9-14.8-0.9
				c-10.3-0.1-11.9,0.2-18,3.3c-3.7,1.8-8.6,4.8-11,6.5l-4.2,3.2l-0.5-0.2c0.4-1.1,0.9-2.1,1.7-2.9c1.6-1.7,3.3-7.1,5.5-18.1
				c0.9-4.6,1.8-8.4,2.7-11.8c0.6-0.5,1.1-0.9,1.2-1.2l1.2,0.4c-0.2,0.6-0.3,1.2-0.5,1.8c-2.5,9.3-4.9,22.6-4.3,23.3
				c0.3,0.3,3.5-1.1,7.2-3.1c6.1-3.3,7.7-3.7,18.6-4.1c10.3-0.4,12.7-0.1,17.6,2c3.1,1.4,7.1,3.9,8.8,5.7c3.7,3.9,5.4,3.3,4.7-1.6
				c-0.3-1.9-1.4-7.1-2.3-11.4c-1-4.3-1.9-13-1.9-19.2c-0.2-17.4-1.1-21.9-6.5-30.2c-5.4-8.3-7.2-13.4-5.9-16.9
				c0.2-0.5,0.4-0.9,0.5-1c0.4-0.4,0.6,0.8,1,3.9c0.4,3.6,2.1,7.6,5.4,12.6c6,9.2,6.7,12.5,6.8,30.5c0,9.9,0.4,14.1,1.1,13
				c0.6-0.9,1.1-4.6,1.1-8.1c0-3.5,0.4-6.6,0.9-6.8c0.5-0.2,2.6-8.7,4.6-19c6.7-33.7,7.7-38.5,8.4-39.1c0.4-0.4,0.7-0.2,0.6,0.4
				c0,1.9-4.3,24.7-5,26.4c-0.8,2-4.5,22.7-7.3,40.4c-1.9,11.9-1.9,13.3-0.2,19.6l1.8,6.8l10.7-0.7c5.9-0.4,23.3-0.7,38.6-0.7h27.9
				l1.9-4.2c1.1-2.4,1.8-6.9,1.8-10.7c-0.1-2.7-0.1-7.2,0-9.4c0.2-0.3,0.5-0.5,0.7-0.7c0.3,1.3,0.5,4.6,0.6,6.1
				c0.5,3.6-0.2,3.9,1.1,2.2c0.8-1.1,1.4-2.3,1.9-3.3c0.9-2,8.7-20.5,10.9-23c0.9-1,2.6-6.4,3.7-11.8c3.8-18.5,15.1-37.3,34.9-58.3
				c8.6-9.1,8.2-9.2-3.9-0.8c-3.6,2.5-7.1,4.6-7.8,4.5c-0.7,0,0-0.9,1.6-2c6.8-4.7,32-23.9,41.7-31.8c11.8-9.6,15.1-12.9,19.6-19.7
				c5.1-7.6,4.1-10.6-7.7-23c-7.3-7.7-7.3-7.6-6.1-14.2c0.2-1.4,0.5-2.9,0.8-4.4l1,0.2c-0.5,2.7-0.7,5.3-0.7,7.6
				c0,2.8,1.5,5.1,7.4,11.3c4.1,4.3,8.2,9.5,9.1,11.6c1.5,3.5,1.4,4.2-1.1,9.6c-1.5,3.2-5.3,8.3-8.3,11.4c-6.3,6.2-6.5,8.7-1.3,11.4
				C445.1,642.8,449,650.5,452.3,662.8z M368.2,722.9c1.1-11.5,0.1-12.7-2.7-3.5c-2.5,7.9-3,13.2-1.6,14.7
				C365.6,735.8,367.5,730.9,368.2,722.9z"/>
			<path class="st1" d="M451.1,667.1c2.3,18,0.6,76.8-2.6,92.7c-0.1,0.3-0.1,0.7-0.2,1c-0.2,0.9-0.5,2-0.7,3.2l-1.8-0.4
				c0.1-0.2,0.1-0.3,0.1-0.4c-0.4-0.4-2.8,1.9-5.3,4.9c-2.6,3.1-10.4,11.4-17.4,18.4c-7,7-12.7,13.1-12.7,13.5c0,0.4,2-1.3,4.5-3.7
				c2.5-2.4,4.8-4.1,5.1-3.7c0.4,0.4-1.2,3.5-3.6,7c-3.2,4.8-7.2,8.5-16,14.8c-6.5,4.6-12.2,8.4-12.7,8.4c-0.5,0-1.3-1.1-1.7-2.5
				c-0.4-1.4-4.9-6.7-9.9-11.9c-7.8-8-10-9.6-15.3-11.1c-6-1.7-15.6-1.6-22.5,0.3c-0.5,0.1-0.9,0.3-1.2,0.3c-1.9,0.3-1-1.9,6.4-21.3
				c11.1-29.3,16.8-39.5,21.8-39.5c1.1,0,2.4-0.7,2.9-1.5c1.2-2,32.8-31.3,50-46.3c18.3-16,18.5-16.3,17.8-17
				c-0.4-0.4-1.3,0-2.2,0.9c-0.9,0.8-5.9,5.3-11.1,9.9c-12.4,10.8-33,29.8-44.4,40.9c-4.9,4.8-9.1,8.6-9.2,8.4
				c-1.1-1.1,5.6-29,8.2-34.1c3.8-7.7,12.4-19.3,20.8-27.9c4.8-5,8.5-9.7,8.1-10.3c-0.4-0.6-0.1-0.7,0.7-0.3
				c0.9,0.5,4.2-1.9,8.9-6.5c14.6-14.2,15.6-14.7,22.8-11.1C443.8,644.7,449.8,656.6,451.1,667.1z M441.7,761.4
				c1.1-1.1,0.5-25.9-0.8-37.9c-2-17.8-5.9-34.1-8.6-36.9c-2.7-2.7-4.9-3.3-4.9-1.4c0,0.6,0.8,1.1,1.7,1.1c0.9,0,2.4,1.1,3.3,2.5
				c3.3,5,8.4,42.2,8.5,61C440.9,756.7,441.3,761.8,441.7,761.4z M441.2,661.5c0.3-1.2,0.2-2.3-0.3-2.3c-0.8,0-8.7,9-11.8,13.6
				c-0.6,1,1.1-0.7,3.9-3.7c2.8-3,5.6-5.4,6.4-5.4C440.1,663.8,440.9,662.8,441.2,661.5z M416.7,681.7c1.4,0-9.2-9.7-12.4-11.3
				c-1.2-0.6,0.8,1.6,4.5,5.1C412.5,678.9,416,681.7,416.7,681.7z M397.8,804.7c1.3,0,0.2-8.3-1.2-9.2c-1.1-0.7-11.3,4.4-16.7,8.4
				c-1.5,1.1,0.3,0.4,4-1.6c3.7-2,7.3-4,7.8-4.6c0.6-0.5,2-1,3.1-1c1.6,0,2,0.9,2,3.9C396.9,802.9,397.3,804.7,397.8,804.7z
				 M389.1,811.7c1.5-0.4,2-0.9,1.2-1.2c-0.8-0.3-2,0-2.7,0.7C386.8,812.1,387.3,812.2,389.1,811.7z"/>
			<path d="M449.9,479.5c0.8-20.2,0.8-20.2,0.6,7.3c-0.2,21.2-0.7,29.6-2.2,36c-1,4.6-2.2,8.7-2.6,9c-0.4,0.3-0.3-0.8,0.1-2.6
				C447.1,523.9,449,500.6,449.9,479.5z"/>
			<path d="M450.2,760.1c-0.1,0.4-0.2,0.8-0.3,1.2c-0.3,1.5-0.8,4.1-1.4,7.2c-0.6,3.5-1.4,7.7-2,11.6c-1.2,7.2-3,16.1-4,19.7
				c-1,3.9-1.5,8.9-1.2,12.2c0.2,2,0.1,3.8,0,4.6c-0.1-0.7-0.2-1.5-0.4-1.8c-0.1-0.3-0.2,0.1-0.4,0.8c-0.5-2-0.6-2.7-1.7,1
				c-0.7,2.4-2.4,8.5-3.7,13.5c-2.5,9.5-3.9,12.8-5.1,11.6c-0.4-0.4,0.6-5.2,2.1-10.7c3-10.5,6.5-25.4,11.4-48.8
				c1.3-6.1,2.9-13.4,3.9-18.2c0.3-1.3,0.5-2.4,0.7-3.2c0.1-0.3,0.1-0.6,0.2-1L450.2,760.1z"/>
			<path class="st0" d="M440.3,596.2c11.8,12.4,12.8,15.4,7.7,23c-4.5,6.7-7.8,10.1-19.6,19.7c-9.8,7.9-35,27.2-41.7,31.8
				c-1.5,1-2.2,1.9-1.6,2c0.7,0,4.2-2,7.8-4.5c12-8.4,12.5-8.3,3.9,0.8c-19.9,21-31.1,39.9-34.9,58.3c-1.1,5.5-2.8,10.8-3.7,11.8
				c-2.2,2.4-9.9,21-10.9,23c-0.5,1-1.1,2.2-1.9,3.3c-1.3,1.7-0.6,1.5-1.1-2.2c-0.1-1.5-0.2-4.8-0.6-6.1c2.2-2.3,3.6-3.9,3.6-4
				c0-1.4-5.3,3.1-11,9.3c-3.7,4-7.1,7.4-7.5,7.4c-1.4,0,6-13.4,8-14.6c2.7-1.6,0.1-1.5-3.9,0c-3.5,1.4-16.5,4.4-17,3.9
				c-0.2-0.2,2.4-2.1,5.6-4.3c6.9-4.6,17.3-14.5,24.6-23.5c7-8.6,11.9-15.8,10.8-15.8c-0.3,0-3.1,3.3-6.2,7.4
				c-6.3,8.3-13.7,16.7-14.2,16.1c-1-1.1-1.5-12.1-0.8-16.6l0.8-5.2l0.6,7.9l0.6,7.9l0.2-10.8c0.3-15.7,4.7-28.7,11.7-34.2
				c2-1.6,3.1-2.9,2.5-2.9c-1.9,0-13.8,10.7-19.2,17.3c-5.8,7-17.4,25.3-17.4,27.4c0,0.8-0.5,1.5-1.1,1.5c-1.9,0-1.3-2.2,3.3-11.3
				c10.6-21.1,26.9-39.5,51.3-57.7c3.4-2.6,7-5.1,10.8-7.7c4-2.7,8.8-6.1,10.5-7.6c1.8-1.4,6.1-4,9.6-5.8c8.8-4.3,16.3-9.2,15.5-10
				c-0.4-0.4-1.6,0.1-2.6,1c-2.8,2.4-10.3,6.6-11.8,6.6c-0.7,0-0.9-0.9-0.6-2c0.3-1.1,3.2-9.6,6.4-18.9c6.1-17.8,10.3-32.3,9.6-33
				c-0.2-0.2-1,1.8-1.7,4.5c-0.7,2.7-2.8,8.1-4.6,12c-1.8,3.9-3.3,7.6-3.3,8.2s-0.5,2-1.1,3.1c-0.6,1.1-2.6,5.4-4.5,9.6
				c-1.9,4.2-3.9,7.6-4.4,7.6c-0.6,0-1.4-1.4-1.8-3.2c-0.5-2.4,0.3-5.3,3.1-11c3.8-7.6,8.2-19,11-28.1c1.7-5.5,3-7.3,5.5-7.3
				c2.5,0,10.7-4,16.8-8.2l4.9-3.3l-0.7,3.8c-0.2,1.2-0.5,3-0.9,5c-0.3,1.5-0.5,3.1-0.8,4.4C433,588.6,433,588.5,440.3,596.2z"/>
			<path class="st1" d="M445.8,763.5l1.8,0.4c-1.1,4.8-2.6,12.1-3.9,18.2c-4.9,23.4-8.4,38.4-11.4,48.8c-1.6,5.5-2.6,10.3-2.1,10.7
				l-38.8,0.2c3.4,0,5.9-3.1,11-13.2c1.9-3.8,7.5-13.8,12.5-22.2c5-8.5,9.1-15.8,9.1-16.3c0-0.5,5.1-6.6,11.3-13.6
				C440.7,770.4,445.1,765,445.8,763.5z M415.7,841.5c0.3-0.3,0.1-6.8-0.4-14.4c-0.5-7.7-1.1-12.7-1.3-11.1c-0.2,1.5-0.1,8,0.4,14.5
				C414.8,836.8,415.4,841.8,415.7,841.5z"/>
			<path d="M446.1,514.7c0.3,0.8,0.3,2,0,2.8c-0.3,0.8-0.6,0.1-0.6-1.4S445.8,513.9,446.1,514.7z"/>
			<path d="M445.9,763.1c0,0,0,0.2-0.1,0.4c-0.8,1.5-5.1,6.9-10.5,13c-6.2,7-11.3,13.1-11.3,13.6c0,0.5-4.1,7.8-9.1,16.3
				c-5,8.5-10.6,18.5-12.5,22.2c-5.1,10.1-7.7,13.2-11,13.2c-2.7,0-2.9-0.3-3-6.1c-0.2-8.4-4.5-16-15.1-26.8c-7.8-8-8.9-8.7-15.2-10
				c-4.9-1-13.3-0.7-20.5,0.5l-0.3-1.7c0.3-0.1,0.7-0.2,1.2-0.3c6.9-1.9,16.5-2.1,22.5-0.3c5.3,1.5,7.5,3.2,15.3,11.1
				c5,5.1,9.5,10.5,9.9,11.9c0.4,1.4,1.2,2.5,1.7,2.5c0.5,0,6.2-3.8,12.7-8.4c8.8-6.3,12.8-10,16-14.8c2.3-3.5,3.9-6.6,3.6-7
				c-0.4-0.4-2.7,1.3-5.1,3.7c-2.5,2.4-4.5,4.1-4.5,3.7c0-0.4,5.7-6.4,12.7-13.5c7-7,14.8-15.3,17.4-18.4
				C443.2,765,445.6,762.8,445.9,763.1z M403.7,820.5c3.1-5.2,5.5-9.7,5.3-9.9c-0.2-0.2-1.5,0.6-2.9,1.8c-1.4,1.2-5.8,4.4-9.8,7
				c-6.9,4.6-7.2,5-6.4,8.2c0.5,1.9,0.8,5.3,0.8,7.7c-0.1,5.2,0.9,5.3,4.6,0.5c1.6-2.1,2.9-4.2,2.9-4.8S400.6,825.8,403.7,820.5z"/>
			<path d="M443.9,524c0.9-4.9,1.5-5.8,1.5-2.2c0,1.5-0.5,3.5-1.1,4.4C443.5,527.4,443.4,526.8,443.9,524z"/>
			<path d="M444.2,535.2c2.1,8.6,0.9,18.2-3.2,26.5c-2.3,4.5-4.1,10.5-5,16.1l-1-0.2c0.3-1.9,0.7-3.8,0.9-5l0.7-3.8l-4.9,3.3
				c-6.1,4.2-14.3,8.2-16.8,8.2c-2.5,0-3.8,1.8-5.5,7.3c-2.8,9.1-7.2,20.5-11,28.1c-2.8,5.7-3.7,8.6-3.1,11c0.4,1.8,1.2,3.2,1.8,3.2
				c0.6,0,2.6-3.4,4.4-7.6c1.9-4.2,3.9-8.5,4.5-9.6c0.6-1.1,1.1-2.5,1.1-3.1s1.5-4.3,3.3-8.2c1.8-3.9,3.9-9.3,4.6-12
				c0.7-2.7,1.5-4.7,1.7-4.5c0.7,0.7-3.5,15.3-9.6,33c-3.2,9.3-6.1,17.8-6.4,18.9c-0.4,1.1-0.1,2,0.6,2c1.4,0,9-4.2,11.8-6.6
				c1.1-0.9,2.3-1.4,2.6-1c0.8,0.8-6.7,5.7-15.5,10c-3.5,1.7-7.8,4.3-9.6,5.8c-1.8,1.4-6.5,4.8-10.5,7.6c-3.8,2.6-7.4,5.1-10.8,7.7
				l-0.9-1.2c6-4.5,12.7-9.4,15.9-11.7c7.8-5.4,11-11,9.9-16.9c-0.4-2.1-1.1-3.8-1.5-3.8c-0.4,0-2.6,2.8-4.7,6.2
				c-4.4,7-17.6,21.9-19.4,21.9c-0.6,0,1.6-3,4.9-6.6c4.6-5,6.4-7.9,9.7-16.6l1,0.4c-1.5,4,0.2,3.6,3.5-1.9
				c10.6-17.2,23.2-51.3,26.1-70.7c8.8-58,2.7-116.4-15.6-152.1c-2.7-5.1-3.6-7.8-2.3-6.2c11,13,21,51.9,23.3,90.4
				c0.9,14.8,1.1,15.7,4.4,20.3c2.7,3.8,4.5,5,8.1,5.7c3,0.6,5.4,2,6.9,4c1.3,1.7,2.7,3.6,3.3,4.2
				C442.4,528.7,443.5,531.9,444.2,535.2z M442.1,550.2c1.5-8.3-0.8-18.9-5.4-24.8c-2.6-3.3-3.4-3.8-6.6-3.3
				c-5.5,0.9-10.6,5.9-10.6,10.5v3.7l6.7-4.5c7-4.7,9.7-5.5,8.7-2.8c-0.3,0.9,0.1,2.2,1,3c0.9,0.7,1.6,1.9,1.6,2.6
				c0,0.7-1,0.1-2.1-1.3c-2.7-3.2-3-3.2-9,0.9c-5.2,3.5-5.2,3.7,0.9,3.4c2.7-0.2,3.6,0.2,3,1.2c-0.5,0.9-2.5,1.1-5.7,0.7
				c-4.5-0.6-5-0.5-5.6,2.1c-1,3.8,0.1,6.2,2.9,6.2c1.5,0,2.3,0.7,2.3,2.2c0,1.2,0.3,3,0.7,4c0.4,1,0.2,1.8-0.4,1.8
				c-0.6,0-1.4-1.5-1.8-3.4c-0.8-4-3-4.6-3-0.8c0,1.4-0.7,3.6-1.6,4.8c-0.8,1.2-1.9,3.8-2.3,5.7c-0.7,3.3-0.5,3.6,2.7,4
				c5.3,0.8,9.6-2.4,11.3-8.5c0.8-2.8,1.8-4.9,2.3-4.6c0.5,0.3,0,3.1-1,6.3c-1.5,4.8-2.5,6.1-5.8,7.5c-6.9,3-11.3,5.3-11.3,5.9
				c0,0.3-0.3,1.7-0.7,3.1c-0.9,3.2,0.8,3.2,7.2,0.3C433.6,569.9,440,562.3,442.1,550.2z M420.2,521c0.8,0.8,6,1,6,0.3
				c0-0.8-5.3-6.3-6-6.3C419.2,515,419.3,520,420.2,521z M398.1,638.9c2.7-5.5,4.2-9.9,3.6-10.5c-0.7-0.7-2.8,2.8-5.5,9.3
				C394.7,641.4,396.4,642.5,398.1,638.9z"/>
			<path d="M440.9,723.5c1.4,12,1.9,36.8,0.8,37.9c-0.4,0.5-0.8-4.7-0.9-11.5c-0.1-18.9-5.2-56.1-8.5-61c-0.9-1.4-2.4-2.5-3.3-2.5
				c-0.9,0-1.7-0.5-1.7-1.1c0-1.9,2.2-1.3,4.9,1.4C435,689.4,438.8,705.7,440.9,723.5z"/>
			<path d="M440.9,659.3c0.5,0,0.6,1,0.3,2.3c-0.3,1.2-1.2,2.3-1.9,2.2c-0.7,0-3.6,2.4-6.4,5.4c-2.8,3-4.5,4.6-3.9,3.7
				C432.2,668.3,440.1,659.3,440.9,659.3z"/>
			<path d="M441.3,816.6c-0.1,0.5-0.3,0.6-0.5-0.1c-0.1-0.3-0.2-0.6-0.3-0.9c0.2-0.7,0.3-1.1,0.4-0.8
				C441.1,815.1,441.2,815.8,441.3,816.6z"/>
			<path d="M429.1,480.7c1.5,4.6,3.5,18.5,2.6,18.5c-0.3,0-1-3.8-1.8-8.3c-0.7-4.6-2.7-12.5-4.3-17.5c-1.6-5.1-2.8-9.4-2.5-9.7
				c0.3-0.3,1.4,2.4,2.5,6C426.7,473.2,428.3,478.2,429.1,480.7z"/>
			<path d="M425.4,542.9c1.1,0.3,2,1,2,1.6c0,1.7-2.7,1-5.6-1.4c-2.3-1.9-2.4-2.2-0.6-1.5C422.4,541.9,424.3,542.6,425.4,542.9z"/>
			<path d="M418.7,452.4c0.8,2,0.1,2.3-1,0.5c-0.4-0.7-0.5-1.5-0.2-1.7C417.8,450.9,418.4,451.4,418.7,452.4z"/>
			<path d="M404.3,670.4c3.2,1.6,13.8,11.3,12.4,11.3c-0.6,0-4.2-2.8-7.9-6.2C405,672.1,403,669.8,404.3,670.4z"/>
			<path d="M415.3,827.1c0.5,7.7,0.6,14.2,0.4,14.4c-0.3,0.3-0.9-4.7-1.3-11.1c-0.4-6.4-0.6-12.9-0.4-14.5
				C414.3,814.4,414.9,819.4,415.3,827.1z"/>
			<path class="st1" d="M409,810.7c0.2,0.2-2.1,4.6-5.3,9.9c-3.1,5.2-5.6,9.9-5.6,10.5s-1.3,2.7-2.9,4.8c-3.7,4.9-4.6,4.8-4.6-0.5
				c0-2.3-0.3-5.8-0.8-7.7c-0.8-3.3-0.5-3.7,6.4-8.2c4-2.7,8.4-5.8,9.8-7C407.4,811.3,408.7,810.5,409,810.7z"/>
			<path d="M404.1,551.2c1.9-15,3.7-20.5,2.5-7.4c-0.6,6.6-1.5,12.5-4.6,31c-0.1,0.9-0.6,2.5-0.9,3.4c-0.3,0.9-0.9,3.7-1.3,6.2
				c-1.5,9.4-10.7,39.8-14.4,47.1c-0.6,1.1-1,2-1.3,2.8l-1-0.4c0.4-1,0.8-2.1,1.2-3.2c4.9-13.2,6-18,1.6-19.8c-1.9-0.8-4.8-1-8.9-1
				c-4.3-0.1-6,0.3-6.5,1.7c-0.7,1.9-1,10.6-0.3,10.6c2.5,0,8.7-3.3,11.1-6c1.8-1.9,3-2.8,3.4-2.8c0.6,0-0.1,1.5-2.3,4.2
				c-2.3,2.7-5.6,4.5-13.2,7.1c-5.6,1.9-14.6,5.5-20,8c-3,1.4-5.2,2.4-6.6,3.2c-3.2,1.8-3.4,2.9-3.9,6.1c-0.5,3.5-1.4,5.1-3.4,6
				c-3.8,1.8-7,8.8-9.5,21.1c-1.2,6.1-3.4,12.9-5,15.7c-2.6,4.5-2.9,6.1-2.9,17.1c0,13.3,0.1,13.4,6,3.8c2.1-3.4,4.5-7.3,5.4-8.8
				c0.9-1.4,6.3-7.3,12-13l10.4-10.3l-1.5-7.9c-0.8-4.3-1.8-12.2-2.3-17.5c-0.4-5.3-1.3-10-2.1-10.5c-0.4-0.3-0.5-0.5-0.4-0.6
				c0.1-0.1,0.6-0.1,1.4,0c1.9,0.3,2.4,1.5,3,8.2c0.9,9.5,3.2,25.7,3.9,26.4c0.2,0.3,5.8-3.6,12.2-8.5c0.8-0.6,1.6-1.2,2.5-1.9
				l0.9,1.2c-24.4,18.2-40.8,36.7-51.3,57.7c-4.5,9.1-5.2,11.3-3.3,11.3c0.6,0,1.1-0.7,1.1-1.5c0-2.1,11.6-20.3,17.4-27.4
				c5.4-6.6,17.3-17.3,19.2-17.3c0.7,0-0.4,1.3-2.5,2.9c-7,5.5-11.4,18.5-11.7,34.2l-0.2,10.8l-0.6-7.9l-0.6-7.9l-0.8,5.2
				c-0.7,4.5-0.1,15.5,0.8,16.6c0.5,0.6,7.9-7.8,14.2-16.1c3.1-4,5.8-7.4,6.2-7.4c1.1,0-3.8,7.2-10.8,15.8
				c-7.3,8.9-17.7,18.9-24.6,23.5c-3.3,2.2-5.8,4.1-5.6,4.3c0.5,0.5,13.5-2.5,17-3.9c3.9-1.6,6.5-1.6,3.9,0c-2,1.2-9.4,14.6-8,14.6
				c0.4,0,3.8-3.3,7.5-7.4c5.7-6.2,11-10.7,11-9.3c0,0.1-1.4,1.7-3.6,4c-0.1-0.4-0.2-0.6-0.4-0.5c-0.1,0.1-0.2,0.6-0.3,1.3
				c-1.6,1.8-3.7,3.9-5.8,6.1c-6.2,6.5-10.3,11.7-10.5,13.5c-0.3,1.9-0.5,1.3-0.6-1.8c-0.2-5.1,2.1-11.8,5.1-15.2
				c1-1.1,1.6-2.2,1.4-2.5c-0.3-0.2-4.1,0.3-8.5,1.3c-5.3,1.1-9.5,1.4-12.4,0.8l-4.4-0.9l3.6-0.8c3.6-0.8,15.1-8.5,21-14
				c2.5-2.3,3-3.5,2.4-5.5c-2.6-7.8,0.5-28,5.9-38.3c0.9-1.7,1.2-3.2,0.7-3.2c-2.7,0-14.6,15.9-22.6,30.2c-4.4,7.9-7.7,19.6-6.2,22
				c0.5,0.7,0.2,0.8-0.7,0.3c-2.2-1.4-0.5-17.1,2.8-26.4c3-8.2,3.4-10.8,1.8-9.8c-0.5,0.3-1.4-2.3-1.8-5.8
				c-1.4-11.4-4.8-20.7-11.4-30.7c-3.5-5.3-6.6-11-6.9-12.7c-0.8-3.7-2.4-3.9-8.3-0.8c-2.4,1.2-5,2.3-5.7,2.3c-1.7,0-0.5-8,2.4-16.6
				c3.4-9.9,3.4-9.8-6-9c-14.5,1.1-21.5,5.9-31.6,21.9c-10.2,16-22.1,46.2-25.4,63.7l-1.2,0c0.1-0.1,0.1-0.2,0-0.3
				c-0.1-0.1-0.4,0-0.9,0.1c0.1-0.5,0.2-1.1,0.3-1.6c1-5.9,9.1-30.1,13.2-39.6c3-7,12.4-24.1,15.7-28.8c0.9-1.3,0.3-2.6-2.7-5.8
				c-4.8-5-5.1-6.6-6.1-25.4c0-0.7-0.1-1.3-0.1-1.9c1.2-2.6,1.3-3.7-0.1-2.1c-0.5-8.7-1-10.6-2-9.7c-2.5,2.1-12.3,18.1-15,24.7
				c-2.8,6.6-6.8,20.3-6.8,23.1c0,3.2,2.1,1.7,2.9-2c0.9-4.4,12.3-23.8,18.5-32.8c1.1-1.6,1.9-2.7,2.5-3.3c0,0.7,0.1,1.4,0.1,2.1
				c-1.1,2.2-2.9,5.5-5.3,9.1c-5.6,8.4-12.7,20.3-16.5,29.5c-2.8,6.8-2.6,16.6,0.5,22.9c2.2,4.3,1.6,5.7-0.9,1.9
				c-5.1-7.8-5.1-27.6,0-42.5c3.9-11.2,8.1-19.2,15.4-28.8c7.8-10.3,7.2-8.8,8.7-21c2.4-19,2.5-20.3,1.2-25.3
				c-1.4-5.6-1.8-26.6-0.7-31.3c0.5-1.8,0.3-3.1-0.3-3.1c-1.6,0-11.3,25.1-12.8,33.1c-1,5.3-0.9,8.9,0.1,15.1
				c0.8,4.5,1.8,8.4,2.4,8.8c0.6,0.3,1,1.2,1,1.8c0,0.8-0.6,0.7-1.6-0.2c-2.7-2.2-5.5-17.2-4.7-25c1.3-12.1,4-26.2,6.4-33.1
				c1.6-4.5,2.2-8.8,2.5-17.2l0.7,0c0,0.2,0,0.4,0,0.5c0,0.8,0.5,1.4,1.1,1.4c1.2,0,2.9-5.3,2.5-7.9c-0.1-0.5-0.1-0.9-0.1-1
				c0.1-0.2,0.3,0.1,0.8,0.8c0.7,1.1,1.5,0.4,3-2.8c2.3-4.8,7.3-12.6,7.3-11.3c0,0.5-1.9,4.3-4.3,8.4c-2.3,4.2-5.2,9.8-6.3,12.5
				l-2,5l4.9-0.6c5.8-0.7,14.3-3.7,22.7-7.9c6.1-3,12.1-6.6,17.1-10.3c5.9-4.4,7.1-5.8,6-7c-1.8-2.2-2.1-2.1-7.8,3.2
				c-5.3,4.9-13.6,11.3-16.1,12.4c-0.5,0.2-0.7,0.2-0.7,0c0-0.5,2.7-2.9,6-5.2c7-5,14.1-12.1,12.2-12.1c-0.7,0-1.4-0.8-1.4-1.7
				s0.5-1.7,1.1-1.7s1.1,0.5,1.1,1.1c0,2.6,3.3,0.7,9.1-5.4c8.8-9.1,17.7-19.8,24-28.7c6-8.5,8-10.2,3.3-2.8
				c-5.5,8.5-17.5,23.8-24.9,31.5c-6.7,7-7,7.6-4.7,8.3c2,0.6,3.6-0.3,8-4.6c3-3,5.5-4.9,5.5-4.2s-2.1,3.1-4.7,5.4
				c-4.7,4.2-4.7,5.4-0.3,6.8c2.7,0.8,6.1-1.5,16.4-11.1c8.6-8,15.6-16.5,18.8-22.7c1.9-3.7,6.7-21.7,9.7-36.5
				c0.3-1.5,0.3,0.3,0,4.2c-0.6,7.6-4.6,24.1-9,37.5c-3.2,9.6-8.3,22.5-9.6,24.3c-0.8,1.1,0.9,3.9,2.5,3.9c0.8,0,3.5-5.2,9.8-19.2
				c6.6-14.4,13-34.9,15.5-49.6c1-6,1.5-7.2,1.6-4.3c0.2,6.2-4.6,26.5-8.8,37.3c-1.5,4,0.2,4,2.2,0c0.9-1.7,2.2-3.9,2.9-4.8
				c3-3.7,15-28.9,17.5-36.8c1.4-4.6,3-8.3,3.4-8.3c1.1,0-3.3,15.3-6,20.5c-1.9,3.8-2.2,4.9-1.3,10l-1,0.2c-0.2-0.8-0.4-1.4-0.7-1.4
				c-0.5,0-3.3,4.5-6.4,9.9c-3.1,5.4-8.3,13.7-11.6,18.5c-3.3,4.8-6,9-6,9.3c0,0.4-1.5,3.8-3.3,7.6c-1.8,3.8-3.2,7.1-3,7.3
				c0.2,0.2,4.5-1.2,9.6-3.1c9-3.3,15.2-4.6,11.4-2.4c-0.9,0.5-6.5,2.6-12.4,4.5c-10.6,3.5-10.7,3.6-14.7,9.9
				c-5.1,8.3-20.8,24.7-26.2,27.5c-2.3,1.2-4.3,1.7-4.3,1s0.7-1.2,1.6-1.2c3.8,0,13-10.8,18.7-22c7.3-14.1,15.9-34.3,15.4-35.8
				c-0.2-0.6-2.9,2-6,5.9c-11.7,14.9-31.2,28.3-44.3,30.4c-2.9,0.5-7.3,2.2-10,3.9c-2.6,1.7-5.3,3-5.9,3c-0.6,0-1.2,0.5-1.2,1.2
				c0,0.8,2.1,1,6.5,0.5c17.3-1.8,22.3-1.8,24.5-0.2c2.1,1.6,2.1,1.7-1.2,1.7l-3.4,0l-0.3,11.3c-0.2,8.6-0.9,12.4-2.5,15.7
				c-4.1,8.1-12.1,11.6-16,7.1c-2.9-3.3-4.9-12.8-4.7-22.5l0.1-9.2l-6.8,0.2l-6.7,0.2l0.7,10.7c0.4,5.9,1.8,17.5,3.1,25.7l2.4,15
				l-2.5,5c-3.1,6.2-2.5,9.1,3,15.2c9.3,10.3,24.5,19.7,38.6,23.7c26.2,7.5,67.6-6.5,91.7-30.9c8-8.1,8.8-9.3,8.2-12.4
				c-0.4-1.8-0.7-7.6-0.7-12.8c0-9.1-1.3-12.3-2.7-6.8c-0.9,3.7-11,18.7-14.9,22.3c-4.7,4.3-11.8,8.9-13.8,8.9c-1,0,0.5-1.5,3.3-3.3
				c3.4-2.2,6.7-4.9,9.8-8.1c0,0.7,0.1,1,0.5,0.8c0.3-0.1,0.6-1.2,1.1-2.5c8.3-8.9,14.9-20.2,16.3-29c1.5-9.6,2.5-4.4,2,10.7
				c-0.4,14.4-0.3,15.7,1.1,12.7C401.6,566.7,403.1,558.9,404.1,551.2z M397.4,587.3c0.5-0.8,0.6-1.8,0.2-2.2s-2.4,1.3-4.5,3.7
				c-3,3.6-3.5,4.9-2.6,6.6c0.8,1.5,0.8,1.9-0.1,1.3c-0.8-0.5-1,0.3-0.6,2.5c0.4,1.8,0.1,4.4-0.7,5.8c-1,1.9-1,2.8,0,4.1
				c1.5,1.9,2.4,1.4,2.8-1.5c0.1-1.1,0.5-2.7,0.8-3.7c0.8-2.2,3.1-11.4,3.5-13.5C396.3,589.6,396.8,588.1,397.4,587.3z M387.9,600.5
				v-5.7l-4.8,3.6c-2.6,2-6.2,4.4-7.9,5.5c-1.7,1-3.1,2.2-3.1,2.6c0,1.6,12,2,14.5,0.5C387.3,606.5,387.9,603.6,387.9,600.5z
				 M367.4,621.1c0.4-3,0.2-3-4.5-0.3c-4.3,2.5-22.2,7.4-31.6,8.5l-6.4,0.8l0.6,9.2l0.6,9.2l-4.1,3.7c-3.7,3.4-4.1,4.2-4.1,9.7
				c0,8.7,1.3,19.9,2.3,19.9c0.5,0,1.1-1.4,1.5-3.1c0.3-1.7,0.9-5.4,1.3-8.2c1.4-10,5-19,9.1-22.3c2.6-2.1,4.1-4.6,4.7-7.6
				c0.8-4.2,1.5-4.8,9.3-8.7c4.6-2.3,11.2-5.2,14.6-6.3C365.5,624.1,367.1,623,367.4,621.1z M320.8,508.9c5.3-7.4,6.1-9.7,3.6-9.7
				c-1.1,0-8.5,11.8-10.8,17.3C312.5,519.3,316.3,515.3,320.8,508.9z M322.6,649.1c0.7-1.3,1-2.9,0.8-3.7c-0.3-0.7-1.3,0.3-2.4,2.3
				c-1,2-1.4,3.7-0.8,3.7C320.8,651.4,321.9,650.3,322.6,649.1z M322.1,632l0.8-7.4l-8.8-0.6c-8.5-0.5-9-0.4-14.6,3.1
				c-3.2,2-6.3,4.4-6.9,5.2c-0.2,0.2-0.3,0.6-0.6,1.1c-1.6,3.5-4.7,13.5-7,22.8c-1.6,6.5-1.6,6.5,0.8,5.8c7.4-2.2,8-3,9-10.7
				c0.5-4,0.6-9.8,0.3-12.9c-0.3-2.2-0.3-3.6-0.2-4.1c0.1-0.4,0.3-0.4,0.7,0.2c0.6,0.9,1.1,3.1,1.1,4.8c0,3.6,0.7,3.8,3.8,1.1
				c2.5-2.2,1.9-0.8-1.8,4.4c-1.8,2.4-2,4.2-1.6,10.1c0.9,10.9,1.6,12.6,9.9,24.9c2.4,3.5,4.3,7.2,4.3,8.1s1,4.3,2.3,7.4
				c1.2,3.1,2.4,8.1,2.5,11c0.1,2.9,0.4,0,0.6-6.5c0.2-7.2-0.3-15.7-1.4-21.9c-1-5.5-1.5-10.3-1.2-10.6c0.5-0.5,1.3,2.2,2.1,7.7
				c0.3,1.5,0.4-2.3,0.3-8.5c-0.1-6.2,0.3-13.3,0.8-15.8l0.9-4.5l-4,4.4c-2.2,2.4-4,3.8-4,3.1s2.3-3.6,5-6.4c2.8-2.8,4.7-5,4.4-5
				s-0.1-0.7,0.5-1.5C320.8,640.1,321.6,636.1,322.1,632z M296.7,626.6c3.1-1.5,5.2-3,4.7-3.4c-0.5-0.4-3.7-1.7-7.1-2.8
				c-8-2.7-15.9-6.9-22.8-12c-4.2-3.1-8.1-6.5-11.5-10.1c-6.1-6.5-6.4-6.5-9.1,3.4c-1,3.4-2.2,7.3-2.7,8.6c-1.2,2.9-0.2,4.2,1.9,2.5
				c2.4-2,1.8,0.7-0.7,2.9c-1.2,1.1-2.2,2.8-2.2,3.8c0,1-0.3,6-0.8,11c-0.8,8.9-0.4,11,3.7,18.8c0.2,0.5,0.1,0.8-0.2,0.8
				c-1.3,0-5.1-7.4-5.1-10.1c0-1.8-0.4-2.4-1.1-1.6c-1.6,1.6,0.5,8.1,3.5,11.4c1.4,1.5,2.6,2.6,2.6,2.6s2.1-1.8,4.5-4
				c0.3-0.3,0.6-0.5,0.9-0.8c3.2-3,3.2-3.4,1.6-5.2c-1-1.1-1.9-2.7-1.9-3.4c0-0.8-0.5-1.1-1.1-0.7c-0.6,0.4-0.8,2.3-0.4,4.2
				c0.4,1.8,0.3,2.9-0.1,2.9c-0.1,0-0.1,0-0.2-0.1c-3-1.9-0.6-20.2,4.2-31.2c3.6-8.3,3.8-6.5,0.3,3.3c-2.4,6.8-2.8,9.5-2.2,14.6
				c0.4,3.4,1.4,7.3,2.3,8.6l1.6,2.4l6.8-2.2l6.8-2.2l-1.7-3.2c-0.9-1.8-1.7-4.9-1.8-6.9l-0.1-3.7l0.9-0.2c0.8,4.8,2.2,9.7,3.5,11.6
				c1.2,1.8,2.5,2.3,5.2,2.1c2-0.2,4.8-0.4,6.3-0.4c1.9-0.1,3.1-1.2,4.3-4.4C290.8,630.2,292.3,628.7,296.7,626.6z M289.1,505.9
				c6.4-2.4,10.5-5.6,7.1-5.6c-1,0-2-0.6-2.2-1.4c-0.4-1.2-5.6,2.3-12.6,8.4C279.6,508.9,282.7,508.4,289.1,505.9z M287.4,531.4
				c0-4.7-0.3-8.6-0.7-8.7c-3.3-0.5-14.1-0.3-15.2,0.3c-1.4,0.9-1.7,16.6-0.4,23.2c1.6,8.3,4,9.8,9,5.8
				C284.8,548.4,287.4,541.2,287.4,531.4z M255.1,579.6c2.4-6.2,2.3-8.2-1.4-27.8c-0.6-3-1.4-10.7-1.8-17c-0.6-10.6-0.9-11.5-2.8-11
				c-1.2,0.3-2.6,1.5-3.2,2.6c-1.1,2.1-1.6,14.5-1.2,33.7c0.2,11.6,0.9,11.8,4.2,1.4c1-3.3,2.1-5.7,2.4-5.4c0.3,0.3-0.8,4.7-2.4,9.9
				c-6.1,20-9.9,57.3-6.6,65.2c0.4,1,0.8,0.1,1.1-2.3c0.2-2.2,0.9-7.1,1.5-11.1s1.6-8,2.1-9c2.2-4.3,5.9-16.8,5.9-19.9
				C252.8,587,253.8,582.8,255.1,579.6z M243.6,525.7c0-0.2-1.3-0.6-2.8-0.9c-1.9-0.4-3.2,0.1-3.8,1.3c-1.3,2.6-6.6,22.4-7.4,27.8
				l-0.7,4.5l2.2-4.5c1.2-2.5,2.3-5.3,2.3-6.2c0-0.9,2.3-6.2,5.1-11.7C241.4,530.5,243.6,525.9,243.6,525.7z"/>
			<path d="M396.6,795.5c1.4,0.9,2.5,9.2,1.2,9.2c-0.5,0-0.9-1.8-0.9-4c0-3-0.5-3.9-2-3.9c-1.1,0-2.5,0.4-3.1,1
				c-0.6,0.5-4.1,2.6-7.8,4.6c-3.7,2-5.5,2.7-4,1.6C385.4,799.9,395.5,794.8,396.6,795.5z"/>
			<path class="st0" d="M397.5,585.1c0.4,0.4,0.3,1.4-0.2,2.2c-0.5,0.8-1,2.2-1.2,3.2c-0.3,2.2-2.7,11.3-3.5,13.5
				c-0.3,0.9-0.7,2.6-0.8,3.7c-0.3,2.9-1.2,3.4-2.8,1.5c-1-1.3-1.1-2.2,0-4.1c0.7-1.4,1-4,0.7-5.8c-0.4-2.2-0.3-3.1,0.6-2.5
				c0.9,0.5,0.9,0.1,0.1-1.3c-0.9-1.7-0.4-3,2.6-6.6C395.1,586.4,397.1,584.7,397.5,585.1z"/>
			<path d="M396.2,467.1c1,16.1,0.3,40-1.6,56.3c-1.2,10.1-6,30.9-8.3,36.1c-0.8,1.9-2.1,5.3-2.8,7.6c-0.5,1.5-1.3,4.7-2.1,7
				c-0.5,0.6-1.1,1.1-1.6,1.7c0-0.7,0.1-1.9,0.2-3c0.9-6,9.2-27.5,10.9-35.4c3-13.5,1.6-16.4-7.7-15.8l-6.5,0.4l0,4.7
				c-0.1,8.1-2.9,18.5-6.2,22.8c-5.1,6.7-12.6,8.9-18.6,5.3c-5.6-3.3-7.4-9.2-7-23.2l0.2-9.9h-4.5c-6.2,0-5.6-1.6,1.3-3.2
				c6.8-1.6,34.6-1.7,41-0.2c2.5,0.6,4.6,0.9,4.8,0.7c0.2-0.2-1.2-3.4-3-7.2c-9.7-20-21.5-56.1-21.5-65.9c0-0.6,0-1.3-0.1-1.8l1-0.2
				c0.1,0.6,0.2,1.3,0.4,2c3,16,14.4,49.4,22.1,65.2c0.8,1.5,1.4,2.9,2.1,4.1c3.6,6.9,5,7.8,5.1,3.8c0-0.4,0-1.6,0.1-3.7
				c0.1-5.9,0.5-18.1,0.8-31.5l0.8-32.7L396.2,467.1z M371.7,541c1.6-3.7,2.7-16.3,1.6-18c-0.8-1.3-23.4-1.8-24.7-0.5
				c-1,1-1.1,20.5-0.1,24.9c0.5,2.3,1.6,4.6,2.4,5.1c2.1,1.4,8.6,1.2,11.3-0.3C365.3,550.4,370.1,544.8,371.7,541z"/>
			<path class="st2" d="M394.2,632.7c1.1,5.9-2.1,11.5-9.9,16.9c-3.2,2.2-9.9,7.2-15.9,11.7c-0.9,0.6-1.7,1.3-2.5,1.9
				c-6.5,4.9-12,8.7-12.2,8.5c-0.6-0.6-3-16.9-3.9-26.4c-0.6-6.7-1-7.9-3-8.2c-0.8-0.1-1.3-0.1-1.4,0l-2.7-1.3
				c1.5-0.8,3.6-1.8,6.6-3.2c5.4-2.5,14.4-6.1,20-8c7.6-2.6,10.9-4.3,13.2-7.1c2.2-2.6,2.9-4.2,2.3-4.2l1.1-2.4
				c4.4,1.8,3.3,6.6-1.6,19.8c-0.4,1.2-0.8,2.2-1.2,3.2c-3.3,8.7-5.1,11.6-9.7,16.6c-3.3,3.6-5.5,6.6-4.9,6.6
				c1.8,0,15-14.9,19.4-21.9c2.2-3.4,4.3-6.2,4.7-6.2C393.1,628.9,393.8,630.6,394.2,632.7z"/>
			<path class="st0" d="M390.9,515.5l2.8,0.1c0,2-0.1,3.3-0.1,3.7c-0.1,4-1.5,3.1-5.1-3.8l1.6-0.5c0.3,0.7,0.6,1,0.8,0.9
				C390.9,515.7,390.9,515.6,390.9,515.5z"/>
			<path class="st3" d="M353.5,804.2l-3.6,3.2c-2,1.8-3.7,3.5-3.7,3.7c0,0.9,0.9,0.1,4-3.3L353.5,804.2z M391.4,841.9L391.4,841.9
				l-28.8,0c0.4-0.1-0.5-1.6-2.2-3.4c-1.8-1.9-3.6-3.4-4-3.4s0.5,1.5,2.1,3.4c1.6,1.8,3.4,3.3,4,3.4h-7.5v-0.2c0.2,0,0.4,0,0.6-0.1
				c2.6-0.9-6.3-5.3-10.7-5.3c-5.4,0-14.1,2.1-17.1,4.1c-1.4,1-1.6,1.5-0.7,1.5v0l-14.1,0c2.3-0.5,4.9-6.9,7.4-18
				c1.8-7.9,3.1-13.1,4.4-16.4c1.5-3.8,2.9-5.3,4.9-6c2.2-0.8,5-1.4,8-1.9c7.2-1.2,15.6-1.4,20.5-0.5c6.3,1.3,7.4,2,15.2,10
				c10.5,10.7,14.8,18.4,15.1,26.8C388.5,841.5,388.6,841.9,391.4,841.9z M351.8,802.4c2.2,1.4,2.5,1.4,1.7,0
				c-0.4-0.6-1.3-1.1-2-1.1C350.7,801.3,350.8,801.8,351.8,802.4z M343.4,815.9c1.1-1.2,1.6-2.3,1-2.3c-0.6,0-1.7,1-2.4,2.3
				c-0.8,1.2-1.2,2.3-1,2.3S342.3,817.2,343.4,815.9z"/>
			<path d="M390.9,515.5c0,0.2,0,0.3-0.1,0.3c-0.1,0.1-0.4-0.2-0.8-0.9c-0.3-0.6-0.6-1.4-0.9-2.3c-0.7-2-1.1-3.8-0.8-4.1
				c0.2-0.2,1,1.2,1.7,3.2C390.6,513.3,390.9,514.8,390.9,515.5z"/>
			<path d="M390.3,810.5c0.8,0.3,0.3,0.8-1.2,1.2c-1.9,0.5-2.3,0.3-1.5-0.5C388.3,810.6,389.5,810.3,390.3,810.5z"/>
			<path class="st0" d="M387.9,594.8v5.7c0,3.1-0.6,6-1.3,6.5c-2.5,1.6-14.5,1.2-14.5-0.5c0-0.4,1.4-1.6,3.1-2.6
				c1.7-1,5.3-3.5,7.9-5.5L387.9,594.8z"/>
			<path d="M385,498.6c2.9,8,3.3,10.6,0.9,6c-3.5-6.9-12-37.1-13-46.7l-0.6-5.4l1.2,5.1C376.7,471.4,382.4,491.6,385,498.6z"/>
			<path class="st2" d="M385.9,610.8l-1.1,2.4c-0.4,0-1.6,0.9-3.4,2.8c-2.4,2.7-8.6,6-11.1,6c-0.7,0-0.4-8.7,0.3-10.6
				c0.5-1.3,2.2-1.8,6.5-1.7C381.1,609.9,384,610.1,385.9,610.8z"/>
			<path d="M379.7,575.8c0.6-0.5,1.1-1.1,1.6-1.7c-0.4,1.3-0.8,2.3-1.1,2.5C379.9,576.8,379.7,576.5,379.7,575.8z"/>
			<path class="st4" d="M373.3,522.9c1.1,1.8,0,14.3-1.6,18c-1.6,3.8-6.4,9.5-9.4,11.1c-2.8,1.5-9.2,1.7-11.3,0.3
				c-0.8-0.5-1.9-2.8-2.4-5.1c-1-4.4-0.9-23.8,0.1-24.9C349.9,521.1,372.4,521.6,373.3,522.9z"/>
			<path d="M371.8,449.4c0.3,0.8,0.3,1.8-0.1,2.2c-0.4,0.4-0.6-0.3-0.6-1.5C371.1,448.8,371.4,448.5,371.8,449.4z"/>
			<path class="st1" d="M365.5,719.4c2.9-9.1,3.8-7.9,2.7,3.5c-0.8,8-2.6,12.8-4.3,11.1C362.5,732.6,363.1,727.3,365.5,719.4z"/>
			<path d="M360.3,838.5c1.7,1.8,2.7,3.2,2.2,3.4c0,0,0,0,0,0h-0.1c-0.6,0-2.4-1.5-4-3.4c-1.6-1.9-2.6-3.4-2.1-3.4
				S358.5,836.6,360.3,838.5z"/>
			<path d="M362.5,841.8C362.5,841.9,362.5,841.9,362.5,841.8C362.4,841.9,362.4,841.9,362.5,841.8L362.5,841.8z"/>
			<path d="M344.7,836.2c4.5,0,13.4,4.5,10.7,5.3c-0.2,0.1-0.4,0.1-0.6,0.1c-0.8,0-1.8-0.4-2.5-0.9c-3.5-2.9-9.6-3.3-16.8-1
				c-4.5,1.4-7.5,2.1-8.6,2.1c-1,0-0.8-0.5,0.7-1.5C330.6,838.3,339.4,836.2,344.7,836.2z"/>
			<path d="M353.5,802.4c0.9,1.4,0.5,1.4-1.7,0c-1-0.6-1.2-1.1-0.4-1.1C352.2,801.3,353.2,801.8,353.5,802.4z"/>
			<path d="M353.5,804.2l-3.2,3.6c-3.1,3.4-4,4.2-4,3.3c0-0.2,1.7-1.8,3.7-3.7L353.5,804.2z"/>
			<path class="st2" d="M350.2,665.5l1.5,7.9l-10.4,10.3c-5.7,5.7-11.1,11.5-12,13c-0.9,1.4-3.3,5.4-5.4,8.8c-5.9,9.6-6,9.6-6-3.8
				c0-11,0.3-12.6,2.9-17.1c1.6-2.8,3.8-9.6,5-15.7c2.5-12.3,5.6-19.3,9.5-21.1c2-0.9,2.9-2.5,3.4-6c0.5-3.3,0.7-4.3,3.9-6.1
				l2.7,1.3c-0.1,0.1,0,0.3,0.4,0.6c0.8,0.5,1.7,5.2,2.1,10.5C348.4,653.3,349.4,661.1,350.2,665.5z M339.7,669.3
				c4.2-2,7.4-3.9,7.1-4.2c-0.7-0.7-17.2,7.3-18.1,8.9c-0.5,0.8-0.1,0.9,1.3,0.1C331.2,673.4,335.6,671.3,339.7,669.3z M333.7,688.6
				c1.3-2.7,1.3-2.7-0.4-0.6c-1,1.2-1.8,2.7-1.8,3.3C331.6,692.7,332.1,692,333.7,688.6z"/>
			<path d="M351,394.5c1.4,0.1-0.3,1-3.7,2.1c-8.3,2.6-13.9,6.4-21.6,14.3c-11.8,12.3-18.9,22.6-27.3,39.7
				c-5.7,11.6-13.1,30.8-13.1,33.8c0,1.1-0.8,3-1.8,4.2c-1,1.2-1.5,1.6-1.1,0.8c0.4-0.8,1.5-4.3,2.4-7.9c6.5-25.3,22.7-54.1,40.4-72
				c8.2-8.3,11.4-10.7,16.7-12.7C345.6,395.5,349.7,394.4,351,394.5z"/>
			<path d="M347.9,514.1l-2.8,0.9c-1.5,0.5-4.1,0.9-5.6,0.9h-2.8l2.8-0.9c1.5-0.5,4.1-0.9,5.6-0.9H347.9z"/>
			<path d="M346.8,665.1c0.3,0.3-2.9,2.2-7.1,4.2c-4.2,2-8.6,4.1-9.7,4.8c-1.5,0.8-1.9,0.8-1.3-0.1
				C329.6,672.4,346.1,664.4,346.8,665.1z"/>
			<path d="M344.4,813.7c0.6,0,0.1,1-1,2.3c-1.1,1.2-2.2,2.3-2.4,2.3s0.2-1,1-2.3C342.7,814.7,343.8,813.7,344.4,813.7z"/>
			<path class="st5" d="M344.3,317c0.6,1.5-1.1,4.1-2.7,4.1c-0.4,0-1.4-0.8-2.2-1.8c-1.2-1.5-1.2-1.9,0.1-2.8
				C341.8,315.1,343.6,315.3,344.3,317z"/>
			<path d="M343.8,757.1c-0.2,0.2-0.4,0.5-0.7,0.7c0.1-0.7,0.2-1.2,0.3-1.3C343.5,756.4,343.7,756.7,343.8,757.1z"/>
			<path class="st6" d="M343,767.2c0.1,3.8-0.7,8.2-1.8,10.7l-1.9,4.2h-27.9c-15.3,0-32.7,0.3-38.6,0.7l-10.7,0.7l-1.8-6.8
				c-1.7-6.3-1.7-7.7,0.2-19.6c2.8-17.7,6.6-38.4,7.3-40.4c0.7-1.7,4.9-24.5,5-26.4c0-0.6-0.3-0.7-0.6-0.4
				c-0.7,0.7-1.7,5.4-8.4,39.1c-2,10.2-4.1,18.8-4.6,19c-0.5,0.2-0.9,3.3-0.9,6.8c0,3.5-0.5,7.1-1.1,8.1c-0.7,1.2-1.1-3.1-1.1-13
				c-0.1-18-0.8-21.3-6.8-30.5c-3.3-5-4.9-9-5.4-12.6c-0.3-3.1-0.6-4.2-1-3.9l-1.9-0.4c1.5-2,2.3-2.5,2.8-2.1
				c0.8,0.5,0.9,0.2,0.4-0.6c-0.8-1.4,2.5-7.8,9.1-17.5c2.1-3,3.7-6.1,3.7-6.8c0-0.7-2.2,2-4.8,5.9c-2.6,4-5.1,7.8-5.6,8.5
				c-3.5,5.3-20.1,32.4-21.6,35.3c-1.1,2.1-1.6,3.2-1.6,3.5l-2.8-0.3c0.1-0.8,0.3-1.7,0.4-2.6c3.4-17.6,15.2-47.7,25.4-63.7
				c10.2-16,17.1-20.8,31.6-21.9c9.4-0.7,9.4-0.8,6,9c-2.9,8.5-4.1,16.6-2.4,16.6c0.7,0,3.3-1,5.7-2.3c5.9-3,7.5-2.8,8.3,0.8
				c0.4,1.7,3.5,7.4,6.9,12.7c6.5,10,10,19.3,11.4,30.7c0.4,3.6,1.2,6.2,1.8,5.8c1.6-1,1.2,1.6-1.8,9.8c-3.4,9.3-5,25-2.8,26.4
				c0.9,0.6,1.2,0.5,0.7-0.3c-1.5-2.4,1.8-14.1,6.2-22c8-14.2,19.9-30.2,22.6-30.2c0.5,0,0.2,1.4-0.7,3.2
				c-5.3,10.3-8.4,30.5-5.9,38.3c0.6,1.9,0.1,3.2-2.4,5.5c-5.9,5.5-17.4,13.2-21,14l-3.6,0.8l4.4,0.9c2.9,0.6,7.1,0.3,12.4-0.8
				c4.4-1,8.2-1.5,8.5-1.3c0.3,0.2-0.4,1.3-1.4,2.5c-3,3.4-5.3,10-5.1,15.2c0.1,3.1,0.3,3.8,0.6,1.8c0.3-1.8,4.3-7,10.5-13.5
				c2.2-2.3,4.2-4.4,5.8-6.1C342.9,760,343,764.5,343,767.2z M306.3,723.5c0.9-2.8,1.6-5.6,1.5-6.2c-0.1-2-3.1,6.7-3.1,9
				C304.7,727.6,305.4,726.3,306.3,723.5z M301.6,740.5c1.6-5.8,2.6-10.9,2.3-11.2c-1.4-1.4-8.9,31.4-10,43.8
				c-0.4,4.8,0.3,2.4,2.1-7.3C297.5,757.7,300,746.3,301.6,740.5z M274.4,686.3c0.3-1.2,0.1-2-0.4-1.6c-0.6,0.3-1,1.4-1,2.3
				C272.9,689.3,273.7,688.9,274.4,686.3z M268.5,667c1.2-2.4,1.2-2.5-0.4-1c-1.5,1.4-5.3,18.4-5.3,23.6c0,3.9,1.1-0.2,2.6-9.7
				C266.3,674.3,267.7,668.5,268.5,667z M262.5,696.5c0.4-2.8,0.3-4.7-0.2-4.3c-1.2,1.1-4,31.6-3.8,41.5c0.1,5.9,0.3,6.7,0.5,2.8
				C259.6,726.6,261.8,701.7,262.5,696.5z M247,673.9c0-1.2-0.2-2.3-0.4-2.3c-0.2,0-0.7,1-1,2.3c-0.3,1.2-0.1,2.3,0.4,2.3
				S247,675.2,247,673.9z M245.5,686c0.3-1.1,0.3-3.1,0-4.5c-0.3-1.4-0.5-0.5-0.5,2C245,686,245.3,687.1,245.5,686z"/>
			<path class="st5" d="M339.4,297.4c2.1,5.8,3.2,11.5,2.6,13.1c-1.2,3.2-3.5,1.5-5.8-4.3c-3-7.7-5.1-17.3-4.3-19.5
				c1.3-3.3,4-1.7,5.2,3.1C337.9,292.5,338.9,295.9,339.4,297.4z"/>
			<path d="M341.1,391.1c3.6,0.1,2.8,0.4-3.9,1.6c-10.5,1.8-16.6,4.5-25.4,11c-19.7,14.6-33.4,31.9-41.7,52.9
				c-4.4,11.2-13.7,39.4-14.6,44.4c-0.4,2.5-1.3,5.3-1.8,6.2c-0.8,1.3-0.9,1.2-0.5-0.6c0.3-1.2,0.8-4.2,1.3-6.6
				c1.3-7.6,12.5-40.5,17.3-50.7c6.8-14.4,16.8-27.6,29.3-38.5c5.9-5.1,13.3-10.9,16.5-12.8C323.9,394,334.4,390.9,341.1,391.1z"/>
			<path class="st4" d="M337.2,787.6c0,0.7-0.8,3.3-1.9,5.9c-1.3,3.3-2.9,5.1-5.6,6.2c-2.1,0.8-4.3,2.7-5.1,4.1
				c-0.4,0.7-0.9,1.8-1.4,3.1c-0.5,1.3-1,2.7-1.4,3.9c-1.4,4.4-1.4,4.4-0.8-2.6c0.2-2.2,0.3-3.7,0.3-4.9c-0.1-2.5-0.8-3.4-2.9-5.6
				l-3.3-3.4l-26.5,0.4l-26.5,0.4l-1.1-3.1c-0.6-1.7-0.7-3.5-0.2-3.9C262.4,786.7,337.2,786.2,337.2,787.6z"/>
			<path class="st5" d="M334.9,320.2c0,1.1-0.7,2.1-1.5,2.1c-1.6,0-3.4-3.6-4.7-9.2c-0.4-1.7-1.4-3.3-2.3-3.6
				c-2.8-1.1-7.1,1.4-7.8,4.4c-0.3,1.6-0.9,4.1-1.2,5.7c-0.6,2.9-3.6,3.9-4.5,1.4c-0.6-1.8-4-26.2-4-29.1c0-3.1,3.2-2.8,4,0.3
				c0.7,2.6,1.4,8,1.6,11c0.1,0.9,0.6,2.4,1.1,3.3c0.9,1.4,1.3,1.4,3.1-0.1c3.2-2.8,7.5-3.4,10.3-1.5
				C331.4,306.5,334.9,315.8,334.9,320.2z"/>
			<path d="M333.3,687.9c1.7-2.1,1.7-2,0.4,0.6c-1.6,3.4-2.2,4.1-2.2,2.7C331.6,690.6,332.3,689.1,333.3,687.9z"/>
			<path d="M323.3,806.9l1.4,0.4c-1.3,3.4-2.6,8.5-4.4,16.4c-2.5,11.1-5.1,17.5-7.4,18h-0.6c-0.8-0.2-0.9-1.4-0.4-4.2
				c0.4-2.3,1.1-5,1.6-5.9c0.4-0.9,2.2-7.7,4-15l3.2-13.3l0.7,0c0,1.2-0.1,2.7-0.3,4.9c-0.6,7-0.6,7,0.8,2.6
				C322.2,809.6,322.7,808.2,323.3,806.9z M318.7,820.1c0.4-0.4,0.4-1.3,0.1-2.2c-0.4-0.9-0.6-0.6-0.7,0.7
				C318.1,819.8,318.3,820.5,318.7,820.1z M317.6,826.4c0.3-0.8,0.3-2.3,0-3.4c-0.3-1.1-0.5-0.5-0.6,1.4
				C317.1,826.2,317.3,827.1,317.6,826.4z M315.8,834.5c0.6-0.4,1.1-2.1,1.1-3.7c-0.1-2.7-0.2-2.8-1.1-0.8
				C314.4,833.2,314.4,835.4,315.8,834.5z"/>
			<path class="st2" d="M323.4,645.4c0.3,0.7-0.1,2.4-0.8,3.7c-0.7,1.3-1.8,2.3-2.4,2.3c-0.6,0-0.3-1.7,0.8-3.7
				C322,645.7,323.1,644.7,323.4,645.4z"/>
			<path class="st2" d="M322.8,624.6l-0.8,7.4c-0.4,4.1-1.3,8.1-2,8.9c-0.7,0.8-0.9,1.5-0.5,1.5s-1.6,2.3-4.4,5
				c-2.8,2.8-5,5.7-5,6.4s1.8-0.6,4-3.1l4-4.4l-0.9,4.5c-0.5,2.5-0.8,9.6-0.8,15.8c0.1,6.2-0.1,10-0.3,8.5c-0.9-5.5-1.6-8.2-2.1-7.7
				c-0.3,0.3,0.3,5,1.2,10.6c1.1,6.1,1.6,14.7,1.4,21.9c-0.2,6.5-0.5,9.4-0.6,6.5c-0.1-2.9-1.3-7.9-2.5-11c-1.2-3.1-2.3-6.5-2.3-7.4
				s-1.9-4.6-4.3-8.1c-8.3-12.3-9-14-9.9-24.9c-0.5-5.9-0.2-7.7,1.6-10.1c3.7-5.1,4.3-6.5,1.8-4.4c-3.1,2.7-3.8,2.5-3.8-1.1
				c0-1.7-0.5-3.9-1.1-4.8c-0.4-0.5-0.6-0.6-0.7-0.2l-2.8-0.9c0.2-0.5,0.4-0.9,0.6-1.1c0.7-0.8,3.8-3.2,6.9-5.2
				c5.5-3.5,6.1-3.7,14.6-3.1L322.8,624.6z M319.7,630.1c0.4-0.6-0.4-0.8-1.6-0.4c-1.2,0.3-2.3,0.8-2.3,1
				C315.8,631.5,319,631,319.7,630.1z M313.1,664.1c0.3-0.8,0.3-2,0-2.8c-0.3-0.8-0.6-0.1-0.6,1.4
				C312.6,664.2,312.8,664.8,313.1,664.1z"/>
			<path class="st7" d="M320.6,803.4l-3.2,13.3c-1.7,7.3-3.5,14.1-4,15c-0.5,0.9-1.2,3.6-1.6,5.9c-0.5,2.8-0.4,4,0.4,4.2l-4.5,0
				c0.6-0.3,1.1-1.7,1.1-4c0-2.7-0.4-3.8-1.3-3.2c-0.9,0.6-1-0.1-0.4-2.5c0.5-1.8,1-6.1,1.2-9.5c0.2-3.4,1.1-9.2,2.1-12.9
				c2.4-9.1,2.1-12.6-0.4-5.7c-1.8,5-10.2,35.4-10.2,37.1c0,0.3,0.8,0.5,1.9,0.6h-5.6l2.6-12.1c1.4-6.7,3.8-16.1,5.3-21.1
				c1.5-4.9,2.7-9.1,2.7-9.4c0-0.1-1.2-0.2-3-0.2l0-2.9l9.8-0.1l3.6,3.6L320.6,803.4z"/>
			<path d="M318,629.6c1.2-0.3,2-0.1,1.6,0.4c-0.6,1-3.9,1.5-3.9,0.6C315.8,630.4,316.8,630,318,629.6z"/>
			<path d="M313.1,661.2c0.3,0.8,0.3,2,0,2.8c-0.3,0.8-0.6,0.1-0.6-1.4C312.6,661.1,312.8,660.5,313.1,661.2z"/>
			<path d="M312.4,841.8h0.6c-0.1,0-0.2,0-0.3,0C312.5,841.9,312.4,841.8,312.4,841.8z"/>
			<path d="M310.2,804.1c2.6-7,2.8-3.4,0.4,5.7c-1,3.7-1.9,9.5-2.1,12.9c-0.2,3.4-0.7,7.7-1.2,9.5c-0.6,2.3-0.5,3,0.4,2.5
				c0.9-0.5,1.3,0.5,1.3,3.2c0,2.3-0.5,3.7-1.1,4h-0.4c-0.4-0.2-0.8-0.8-1.1-1.9c-0.5-1.9-0.5-1.9-0.6,0c-0.1,1.1-0.8,1.8-2.2,1.9
				h-1.7c-1.1-0.1-1.9-0.3-1.9-0.6C300,839.5,308.4,809.1,310.2,804.1z"/>
			<path d="M307.5,841.8h0.4C307.8,841.9,307.6,841.9,307.5,841.8z"/>
			<path d="M307.8,717.3c0,0.6-0.6,3.4-1.5,6.2c-0.9,2.8-1.6,4.1-1.6,2.8C304.7,724,307.7,715.3,307.8,717.3z"/>
			<path d="M303.7,595.4c2.6,1.6,4,2.9,3.1,2.9s-3.6-1.1-5.9-2.5c-2.3-1.4-4.2-2.9-4.2-3.4c0-1.5,3.1-4.1,4.7-4.1
				c0.9,0,0.8,0.5-0.5,1.2C297.9,591.2,298.4,592.2,303.7,595.4z"/>
			<path d="M306.8,799.3c0,0.2-1.2,4.4-2.7,9.4c-1.5,4.9-3.8,14.4-5.3,21.1l-2.6,12.1l-10,0c-3.3-0.1-4.3-0.6-4.3-1.6
				c0-1.8,6.2-31.8,7.7-37.2c0.9-3.3,1.1-3.4,9-3.7c1.9-0.1,3.7-0.1,5.1-0.1C305.6,799.1,306.8,799.2,306.8,799.3z"/>
			<path class="st5" d="M303,306.8c7.9,4.1,8.2,9,1,13.3c-3.1,1.8-3.8,2.9-3.4,4.8c1.1,4.9,1.1,12.3-0.1,12.7
				c-0.6,0.2-1.8-0.2-2.5-1c-0.8-0.8-1.4-2.5-1.4-4c0-1.4-1-7.3-2.3-12.9c-1.3-5.7-2.1-10.9-1.8-11.7
				C293.4,305.7,299.5,305,303,306.8z M303.2,314c0.7-0.8,0.9-1.9,0.5-2.3c-1.4-1.3-6-0.8-6,0.8C297.7,315.6,301.1,316.6,303.2,314z
				"/>
			<path d="M303.9,729.3c0.3,0.3-0.8,5.3-2.3,11.2c-1.6,5.8-4.1,17.2-5.6,25.3c-1.8,9.7-2.5,12.2-2.1,7.3
				C295,760.7,302.5,727.9,303.9,729.3z"/>
			<path class="st7" d="M303.7,796.3l0,2.9c-1.4,0-3.1,0-5.1,0.1c-7.9,0.3-8.1,0.4-9,3.7c-1.5,5.4-7.7,35.5-7.7,37.2
				c0,1,1,1.5,4.3,1.6l-33.9,0c1.4-0.7,2.5-6.3,2.5-13.5c0-2.8,0.5-6.8,1.1-9c0.6-2.2,2-7.6,3.1-12.1c1.1-4.5,2.6-8.7,3.3-9.4
				c0.8-0.8,9.7-1.3,26.1-1.4L303.7,796.3z"/>
			<path d="M301.9,841.8h1.7c-0.2,0-0.5,0-0.7,0C302.5,841.9,302.2,841.8,301.9,841.8z"/>
			<path class="st0" d="M301.5,623.2c0.5,0.4-1.6,1.9-4.7,3.4c-4.4,2.1-6,3.6-7.3,6.9c-1.2,3.2-2.4,4.3-4.3,4.4
				c-1.5,0.1-4.3,0.3-6.3,0.4c-2.7,0.2-4-0.3-5.2-2.1c-1.3-1.9-2.6-6.8-3.5-11.6c-0.4-2.5-0.7-5-0.7-6.9c0-2.3-0.2-3.2-0.5-3.2
				l0.3-1.5c0.1,0,0.1,0,0.2,0c0.7,0,1.2-0.5,1.2-1.1s-0.2-1.1-0.5-1.1l1.3-2.3c7,5.1,14.8,9.2,22.8,12
				C297.8,621.6,301,622.8,301.5,623.2z"/>
			<path d="M296.2,841.8L296.2,841.8l-7.1,0c-1.1,0-2,0-2.8,0L296.2,841.8z"/>
			<path class="st2" d="M294.9,638.4c0.3,3.1,0.2,8.9-0.3,12.9c-0.9,7.7-1.6,8.4-9,10.7c-2.4,0.7-2.4,0.7-0.8-5.8
				c2.3-9.3,5.4-19.3,7-22.8l2.8,0.9C294.6,634.8,294.7,636.2,294.9,638.4z"/>
			<path class="st5" d="M287.7,313.7c2.7,2.5,5.4,11.3,3.9,12.8c-1.3,1.3-3.9-1-4.6-4.2c-1.1-5-4.7-4.7-5.7,0.5
				c-0.4,2.2-1.1,3.9-1.5,3.9c-1.1,0-4.6-6.3-4.6-8.4c0-1-0.5-1.8-1.1-1.8c-1.4,0-3.4,3.8-5.1,9.5c-1.5,5.1-3.3,6.2-5,3
				c-1.5-2.8-1.6-14.8-0.1-14.8c0.6,0,1.4,0.5,1.8,1.1c1.2,2,2.4,1.2,4.3-2.8c2.2-4.7,4.4-5,7-1c1.8,2.7,2.1,2.8,3.9,1.1
				C283.4,310.4,284.3,310.5,287.7,313.7z"/>
			<path d="M287.9,514c4.3-0.1,5.4,0.4,2.8,1.3c-0.8,0.3-2.7,0.1-4.2-0.3C284,514.2,284.2,514.1,287.9,514z"/>
			<path class="st4" d="M286.6,522.8c0.4,0.1,0.7,4,0.7,8.7c0,9.8-2.5,16.9-7.3,20.7c-5.1,4-7.4,2.4-9-5.8c-1.3-6.6-1-22.3,0.4-23.2
				C272.5,522.5,283.3,522.2,286.6,522.8z"/>
			<path d="M274,684.7c0.6-0.3,0.8,0.4,0.4,1.6c-0.7,2.6-1.4,3-1.4,0.6C272.9,686.1,273.4,685,274,684.7z"/>
			<path class="st0" d="M271.2,635.5l1.7,3.2l-6.8,2.2l-6.8,2.2l-1.6-2.4c-0.9-1.3-1.9-5.2-2.3-8.6c-0.6-5-0.2-7.8,2.2-14.6
				c3.4-9.8,3.2-11.6-0.3-3.3c-4.7,11-7.2,29.3-4.2,31.2c0.1,0,0.2,0.1,0.2,0.1l1.9,2.2c-0.3,0.3-0.6,0.5-0.9,0.8
				c-2.4,2.2-4.4,4-4.5,4s-1.3-1.2-2.6-2.6c-3.1-3.3-5.1-9.8-3.5-11.4c0.7-0.7,1.1-0.2,1.1,1.6c0,2.7,3.8,10.1,5.1,10.1
				c0.4,0,0.4-0.4,0.2-0.8c-4.1-7.8-4.5-9.9-3.7-18.8c0.4-5,0.8-9.9,0.8-11c0-1,1-2.8,2.2-3.8c2.4-2.2,3.1-4.9,0.7-2.9
				c-2.1,1.7-3.1,0.4-1.9-2.5c0.5-1.3,1.8-5.2,2.7-8.6c2.8-9.9,3-10,9.1-3.4c3.4,3.7,7.3,7,11.5,10.1l-1.3,2.3
				c-0.3,0-0.8,0.5-1.2,1.1c-0.4,0.6-0.2,1,0.3,1.1l-0.3,1.5c-0.6,0-1.7,4.5-2.2,10.9c-0.6,8.3-0.6,8.4,0.9,3.9l1.6-4.5l0.1,3.7
				C269.5,630.6,270.3,633.8,271.2,635.5z M266.9,637.5c0.4-0.4,0.4-1.3,0.1-2.2c-0.4-0.9-0.6-0.6-0.7,0.7
				C266.2,637.3,266.5,637.9,266.9,637.5z"/>
			<path d="M270.2,610.8c0.3,0,0.5,0.5,0.5,1.1s-0.5,1.1-1.2,1.1c0,0-0.1,0-0.2,0c-0.5-0.1-0.7-0.5-0.3-1.1
				C269.4,611.3,269.9,610.8,270.2,610.8z"/>
			<path d="M270.2,624.7l-0.9,0.2l-1.6,4.5c-1.6,4.4-1.6,4.3-0.9-3.9c0.5-6.4,1.5-10.9,2.2-10.9c0.3,0,0.5,1,0.5,3.2
				C269.5,619.8,269.8,622.2,270.2,624.7z"/>
			<path d="M268.1,666c1.6-1.5,1.6-1.4,0.4,1c-0.8,1.5-2.1,7.3-3,12.9c-1.5,9.5-2.6,13.6-2.6,9.7C262.8,684.4,266.6,667.4,268.1,666
				z"/>
			<path d="M267,635.4c0.3,0.8,0.3,1.8-0.1,2.2c-0.4,0.4-0.6-0.3-0.6-1.5C266.3,634.7,266.6,634.5,267,635.4z"/>
			<path d="M262.3,692.2c0.5-0.4,0.5,1.5,0.2,4.3c-0.7,5.3-2.8,30.2-3.4,40c-0.2,3.9-0.4,3-0.5-2.8
				C258.3,723.8,261.1,693.3,262.3,692.2z"/>
			<path d="M261.2,514.6c1-0.4,1.5-0.2,1.1,0.5c-0.7,1.1-2.8,1.6-2.8,0.7C259.4,515.4,260.2,514.9,261.2,514.6z"/>
			<path class="st3" d="M257.6,791l3.2,4.6l-3.5,11.5c-1.9,6.3-3.5,13.3-3.5,15.5c0,2.2-0.7,7.5-1.5,11.7c-1,5.3-1.1,7.2-0.4,7.5
				H248c0.1-0.1,0.2-0.3,0.2-0.6c0-1.4-8.1-11.7-11.4-14.5c-1.9-1.6-4.3-2.9-5.3-2.9c-2.8,0-14.6,8-19.8,13.4
				c-2.2,2.2-3.5,4.1-3.4,4.5l-12.1,0v-0.2c0.8,0,1-2.2,0.5-7.8c-0.3-4.5-0.1-10.1,0.5-12.3c0.7-2.4,0.8-6.5,0.2-10.2
				c-0.5-3.3-1.2-9.2-1.5-13.1l-0.6-6.9l4.2-3.2c2.3-1.8,7.3-4.7,11-6.5c6.2-3,7.7-3.3,18-3.3c6.2,0,12.9,0.5,14.8,0.9
				C247.7,780.3,253.5,785.1,257.6,791z M256.2,797.1c1.4-1.8,1.4-1.9-0.7-0.3c-1.2,0.9-2.5,1.8-2.7,2c-0.3,0.2,0.1,0.3,0.7,0.3
				C254.1,799,255.3,798.1,256.2,797.1z M255.7,793.4c1,0,0-1.3-4.3-5.8c-4.8-5-3.9-2.8,1.1,2.7C254.1,792,255.5,793.4,255.7,793.4z
				 M248.4,813.7c4.2,2.5,4.2,2.6,4.2,1.3c0-0.5-1.8-1.8-3.9-2.8C243.7,809.9,243.6,810.7,248.4,813.7z M250.7,826.1
				c0.5-6.3,0.4-7.3-0.4-3.9c-0.5,2.5-1,6.5-1.1,8.9C249.2,838.2,250.1,835.2,250.7,826.1z M227.9,787.5c2.2-1.6,3.6-3.3,3.2-3.7
				c-0.4-0.4-2.7,0.9-5.1,2.9c-6,5.1-24,23.8-24,24.8c0,0.5,4.9-4.1,11-10.1C219,795.4,225.7,789.1,227.9,787.5z"/>
			<path d="M259.4,440c0.6-0.4,0.8,0,0.4,1.1c-0.5,1.2-1,1.8-1.3,1.7c-0.2-0.1-0.3-0.4-0.3-1c0-0.4,0.2-0.8,0.5-1.2
				C259,440.4,259.2,440.2,259.4,440z"/>
			<path class="st6" d="M259.1,781.7c0.7,4.9-1,5.5-4.7,1.6c-1.7-1.8-5.7-4.4-8.8-5.7c-4.9-2.1-7.3-2.4-17.6-2
				c-10.9,0.4-12.5,0.7-18.6,4.1c-3.7,2-6.9,3.4-7.2,3.1c-0.7-0.7,1.8-14,4.3-23.3c0.2-0.6,0.3-1.3,0.5-1.8
				c2.2-7.6,4.5-12.2,7.2-14.1c3.5-2.5,5.8-7,6.4-12.5c0.1-0.8,0.2-1.6,0.3-2.4l2.8,0.3c0,0.7,2.3-2.5,6-8.6
				c5.9-9.7,9.4-15,11.4-17.7l1.9,0.4c-0.1,0.1-0.3,0.5-0.5,1c-1.3,3.5,0.5,8.6,5.9,16.9c5.4,8.3,6.4,12.7,6.5,30.2
				c0.1,6.2,0.9,14.8,1.9,19.2C257.7,774.6,258.8,779.8,259.1,781.7z"/>
			<path class="st0" d="M256.6,440.2l2.2,0.4c-0.3,0.4-0.5,0.8-0.5,1.2c0,0.6,0.1,0.9,0.3,1l-0.9,1.4c-1.1,0-5.8,10.8-9.1,20.7
				c-2.4,7.4-7.3,28-9.1,38.3c-0.1,0.3-0.1,0.6-0.1,0.9l-2.1-0.3c1-8.1,2.3-17.2,2.9-20.7c1.7-9.2,8.4-27.9,13.6-38.1
				C254.9,443.1,255.7,441.6,256.6,440.2z"/>
			<path class="st5" d="M256.7,312.7c2.3,7.2,3.4,18.6,1.9,18.6c-0.6,0-1.8-2.4-2.5-5.4c-3.5-13.5-3.2-13-8.2-12.2
				c-7.4,1.2-9,2.5-8.2,6.6c0.4,2,1.2,5,1.9,6.7c1.3,3.3,0.6,6.5-1.3,6.5c-0.6,0-1.2-0.2-1.2-0.4s-1.8-7.4-3.9-16.1
				c-2.2-8.6-3.7-16.3-3.4-17.1c1.2-3,2.8-1.1,4.7,5.4c1.4,5,2.3,6.7,3.5,6.2c0.9-0.3,3.6-0.9,6.1-1.3l4.4-0.7l-0.8-6.6
				c-0.7-5.8-0.5-6.5,1.1-5.9c1,0.4,2.4,2.8,3,5.4C254.4,304.9,255.7,309.6,256.7,312.7z"/>
			<path d="M257.8,444.3c0.4,0.3-0.1,1.8-1,3.3c-3.8,5.9-11.7,33.3-15.4,53.2c-0.6,3-1.4,5.8-1.8,6.2c-0.4,0.3-0.4-0.9-0.1-2.9
				c0-0.3,0.1-0.6,0.1-0.9c1.7-10.2,6.6-30.8,9.1-38.3c3.2-9.9,8-20.7,9.1-20.7C257.8,444.2,257.8,444.2,257.8,444.3z"/>
			<path d="M255.5,796.7c2.1-1.5,2.1-1.5,0.7,0.3c-0.9,1.1-2.1,2-2.7,2c-0.7,0-1-0.1-0.7-0.3C253,798.5,254.2,797.6,255.5,796.7z"/>
			<path d="M257.1,675.8c0,0.7-1.7,3.8-3.7,6.8c-6.6,9.7-10,16.1-9.1,17.5c0.5,0.8,0.3,1-0.4,0.6c-0.5-0.3-1.3,0.2-2.8,2.1
				c-2.1,2.7-5.5,8-11.4,17.7c-3.8,6.1-6,9.3-6,8.6c0-0.3,0.5-1.4,1.6-3.5c1.5-2.9,18.1-30.1,21.6-35.3c0.4-0.7,3-4.5,5.6-8.5
				C255,677.7,257.1,675.1,257.1,675.8z"/>
			<path class="st0" d="M256.8,642.5c1.6,1.8,1.6,2.2-1.6,5.2l-1.9-2.2c0.4,0,0.5-1.1,0.1-2.9c-0.4-1.9-0.2-3.8,0.4-4.2
				c0.6-0.4,1.1-0.1,1.1,0.7C254.9,639.9,255.7,641.4,256.8,642.5z"/>
			<path d="M251.4,787.6c4.3,4.5,5.3,5.8,4.3,5.8c-0.2,0-1.6-1.4-3.2-3.1C247.5,784.8,246.6,782.5,251.4,787.6z"/>
			<path class="st0" d="M253.7,551.8c3.7,19.6,3.8,21.6,1.4,27.8c-1.3,3.2-2.3,7.4-2.3,9.3c0,3.1-3.6,15.6-5.9,19.9
				c-0.5,1-1.5,5.1-2.1,9s-1.3,8.9-1.5,11.1c-0.2,2.4-0.6,3.3-1.1,2.3c-3.3-7.8,0.5-45.2,6.6-65.2c1.6-5.2,2.6-9.6,2.4-9.9
				c-0.3-0.3-1.3,2.2-2.4,5.4c-3.3,10.4-4,10.2-4.2-1.4c-0.3-19.2,0.1-31.6,1.2-33.7c0.6-1.1,2.1-2.3,3.2-2.6
				c1.9-0.5,2.2,0.4,2.8,11C252.3,541.1,253.1,548.7,253.7,551.8z"/>
			<path d="M252.7,815c0,1.2-0.1,1.2-4.2-1.3c-4.8-3-4.7-3.8,0.3-1.5C250.9,813.3,252.7,814.5,252.7,815z"/>
			<path d="M251.8,841.8h0.6c-0.1,0-0.2,0.1-0.3,0.1C252,841.9,251.9,841.8,251.8,841.8z"/>
			<path d="M250.4,822.1c0.7-3.3,0.8-2.3,0.4,3.9c-0.7,9.2-1.5,12.1-1.4,5C249.4,828.6,249.8,824.6,250.4,822.1z"/>
			<path d="M248.1,841.2c0,0.3-0.1,0.5-0.2,0.6h-0.7c-1.1-0.5-3.5-3-7.4-7.8c-3.7-4.6-7.3-7.9-8.5-7.9c-2.3,0-16.3,9.5-19.8,13.4
				c-1,1.1-2.2,2-2.9,2.3h-0.5c-0.1-0.4,1.3-2.3,3.4-4.5c5.2-5.4,17-13.4,19.8-13.4c1.1,0,3.5,1.3,5.3,2.9
				C240,829.5,248.1,839.8,248.1,841.2z"/>
			<path d="M247.3,841.8h0.7C247.9,841.9,247.6,841.9,247.3,841.8z"/>
			<path d="M246.6,671.7c0.2,0,0.4,1,0.4,2.3s-0.5,2.3-1,2.3s-0.8-1-0.4-2.3C245.9,672.7,246.3,671.7,246.6,671.7z"/>
			<path d="M245.6,681.5c0.3,1.4,0.3,3.4,0,4.5c-0.3,1.1-0.5-0.1-0.5-2.5C245.1,681,245.3,680.1,245.6,681.5z"/>
			<path class="st0" d="M240.8,524.8c1.6,0.3,2.8,0.7,2.8,0.9c0,0.2-2.3,4.8-5.1,10.3c-2.8,5.5-5.1,10.8-5.1,11.7
				c0,0.9-1.1,3.7-2.3,6.2l-2.2,4.5l0.7-4.5c0.8-5.3,6.1-25.1,7.4-27.8C237.6,524.9,238.9,524.5,240.8,524.8z"/>
			<path d="M239.3,620.6c1.5-1.7,1.3-0.5,0.1,2.1C239.4,621.9,239.4,621.2,239.3,620.6z"/>
			<path class="st0" d="M239.3,511.6c0.4,2.6-1.2,7.9-2.5,7.9c-0.6,0-1.1-0.6-1.1-1.4c0-0.1,0-0.3,0-0.5c0.1-1.2,0.4-3.9,0.8-7.3
				l2.7,0.3C239.2,510.8,239.2,511.1,239.3,511.6z"/>
			<path class="st0" d="M237.3,610.9c1-0.9,1.5,1,2,9.7c-0.6,0.6-1.4,1.7-2.5,3.3c-6.3,9-17.6,28.5-18.5,32.8
				c-0.8,3.7-2.9,5.1-2.9,2c0-2.8,4.1-16.5,6.8-23.1C225,629,234.8,613,237.3,610.9z"/>
			<path d="M231,783.8c0.4,0.4-1,2.1-3.2,3.7c-2.2,1.6-8.9,7.9-14.9,13.9c-6.1,6-11,10.6-11,10.1c0-1,18-19.7,24-24.8
				C228.3,784.7,230.6,783.4,231,783.8z"/>
			<path d="M220,726l1.2,0c-0.2,0.9-0.3,1.8-0.4,2.6c-0.1,0.8-0.2,1.6-0.3,2.4c-0.6,5.5-2.9,10-6.4,12.5c-2.6,1.9-5,6.4-7.2,14.1
				l-1.2-0.4c0,0,0-0.1,0-0.1c-0.1-0.1-0.4,0-0.9,0.2c2.4-8.9,4.8-13.3,7.8-15.3c2.6-1.7,4.7-6.7,6.3-15.1
				C219.5,726.6,219.9,726.3,220,726z"/>
			<path d="M220,725.8c0.1,0.1,0.1,0.2,0,0.3c-0.1,0.2-0.5,0.6-1.1,0.9c0.1-0.3,0.1-0.7,0.2-1.1C219.6,725.8,219.9,725.7,220,725.8z
				"/>
			<path d="M219.1,725.9c-0.1,0.4-0.1,0.7-0.2,1.1c-3.5,2.3-14.2,6.6-18.5,7.3c-7.2,1.1-5.3,2.6,4.4,3.5c6.4,0.6,7.3,0.9,5.3,1.8
				c-4.1,1.8-12.6,16.3-12.6,21.4c0,0.6,1,0.2,2.3-0.9c0.9-0.8,3.7-2.3,5.1-2.8c-0.1,0.4-0.2,0.7-0.3,1.1c-1.3,1-3.2,2.3-4.2,3.1
				c-1.7,1.4-2.9,3.6-3.2,5.9c-0.2,2-0.7,3.3-1.2,2.8c-2.9-3,1.1-17.8,6.9-25.1c1.9-2.4,3.5-4.7,3.5-5.1c0-0.4-1.4-0.7-3.1-0.7
				c-8.1,0-16.3-4.9-19.5-11.6c-0.7-1.5,0.1-1,2.2,1.4c3.4,3.8,3.4,3.8,11.6,3.3c5.4-0.4,9.9-1.4,13.1-3
				C212.9,728.2,217.2,726.4,219.1,725.9z"/>
			<path d="M208.2,841.8h0.5c-0.1,0.1-0.3,0.1-0.4,0.1C208.2,841.9,208.2,841.8,208.2,841.8z"/>
			<path d="M205.7,757.2C205.7,757.2,205.7,757.2,205.7,757.2c-0.1,0.3-0.5,0.7-1.2,1.3c0.1-0.4,0.2-0.7,0.3-1.1
				C205.3,757.2,205.6,757.1,205.7,757.2z"/>
			<path d="M197.4,811.3c0.5,3.6,0.5,7.8-0.2,10.2c-0.6,2.2-0.8,7.8-0.5,12.3c0.4,5.6,0.3,7.8-0.5,7.8c-0.1,0-0.1,0-0.2,0
				c-1.7-0.6-2.4-17-0.9-21.3c1.2-3.5,0.5-9.9-1.2-9.9c-0.5,0-1,1.4-1,3.2c0,4.1-4.3,27.4-5.2,28.3c-0.4,0.4-0.4-2.4,0.1-6.1
				c0.4-3.7,2-13,3.5-20.7c1.5-7.6,2.8-16.2,2.8-19.1c0-2,0.2-3.5,0.6-4.8l0.5,0.2l0.6,6.9C196.2,802.1,196.9,808,197.4,811.3z"/>
			<path class="st7" d="M196.1,841.6v0.2h-8.4c0.9-0.9,5.2-24.2,5.2-28.3c0-1.7,0.4-3.2,1-3.2c1.6,0,2.4,6.4,1.2,9.9
				c-1.5,4.4-0.9,20.8,0.9,21.3C196,841.6,196.1,841.6,196.1,841.6z"/>
			<path d="M146.1,340.3c1.3,21-3.4,68.6-9,91.3c-1.6,6.5-3,12.4-3.1,13c-0.4,2.3,4.3,11.8,5.7,11.3c0.8-0.3,1.6-0.1,2,0.5
				c0.3,0.5,0,1.2-0.8,1.5c-1.1,0.4-1.1,1,0.1,3c2.8,4.8,0.1,3.8-5.9-2.1c-5.5-5.4-9-6.8-8.1-3.1c0.2,0.8,0.1,1.1-0.1,0.7
				c-0.2-0.4-3.6,1-7.5,3.1c-5.8,3.1-20,7.6-22.2,7c-0.3-0.1-3-0.5-6.1-1l0.3-1.6c5.6,0.7,14-0.8,21.5-3.8c4.4-1.8,9.8-4.9,12.1-6.9
				l4.1-3.6l3.4,3.2c1.9,1.8,3.2,2.7,2.9,2c-0.3-0.6-1.3-3-2.4-5.3c-1.7-3.8-1.7-4.6-0.1-10.1c2.9-9.9,7.2-33.4,8.9-49.5
				c1.9-17.8,2.2-54,0.5-67.7c-0.3-2.2-0.6-4.4-1.1-6.6l1.8-0.4C144.4,323.4,145.6,332.2,146.1,340.3z"/>
			<path d="M142.8,315.3l-1.8,0.4c-3-15.6-9.4-31.8-14.1-34.4c-1.2-0.7-4.5-2.7-7.3-4.4c-4.9-3.2-5.2-3.2-16.3-2.4
				c-11.7,0.8-18.8,2.4-25.1,5.6c-4.3,2.2-5.3,3.5-5.8,7.4c-0.1,0.6-0.7,1.1-1.4,1.1c-4.7,0-15.1,24.1-18.6,42.8
				c-7.6,40.8-5.9,68.2,6.2,97.7c8.1,19.8,19.6,32.3,31.8,34.6c0.3,0.1,0.6,0.1,0.9,0.1l-0.3,1.6c0,0-0.1,0-0.1,0
				c-3.1-0.5-6.6-1-7.8-1.3c-1.2-0.2-5.3-3.3-9.1-6.8c-5.1-4.7-8.4-9.1-12.3-16.5c-2.9-5.5-5.3-10.9-5.3-11.9c0-1-0.4-1.8-1-1.8
				c-0.5,0-1.5-1.9-2.2-4.2c-0.6-2.3-2-7.2-3-10.8c-1-3.7-2.1-7.1-2.5-7.7c-0.4-0.6-0.8-3.4-1-6.3c-0.2-2.9-0.7-10.1-1.1-16
				c-1.6-23.9,4-59.2,12.3-78.3c1.3-3.1,2.3-6.3,2-7c-0.3-0.8,0-1.4,0.7-1.4c0.6,0,3.1-2.7,5.5-6c2.4-3.3,5.9-7.4,7.9-9
				c5.2-4.3,16.1-7.4,29.1-8.2c11.1-0.7,11.5-0.6,18.1,2.7c6.8,3.5,8.4,4.9,12.2,10.7C136.9,290.6,140.4,302.2,142.8,315.3z"/>
			<path class="st8" d="M142.1,322.2c1.7,13.7,1.4,49.9-0.5,67.7c-1.7,16.1-6,39.6-8.9,49.5c-1.6,5.5-1.6,6.3,0.1,10.1
				c1,2.3,2.1,4.6,2.4,5.3c0.3,0.6-1-0.3-2.9-2l-3.4-3.2l-4.1,3.6c-2.3,2-7.7,5.1-12.1,6.9c-7.5,3-15.9,4.5-21.5,3.8
				c-0.3,0-0.6-0.1-0.9-0.1c-12.2-2.3-23.7-14.8-31.8-34.6c-12-29.5-13.7-56.9-6.2-97.7c3.5-18.8,13.9-42.8,18.6-42.8
				c0.7,0,1.4-0.5,1.4-1.1c0.5-3.9,1.5-5.2,5.8-7.4c6.3-3.2,13.4-4.8,25.1-5.6c11.1-0.8,11.4-0.7,16.3,2.4c2.8,1.8,6,3.8,7.3,4.4
				c4.7,2.6,11.1,18.8,14.1,34.4C141.5,317.8,141.9,320.1,142.1,322.2z M125.9,370.7c0.4-0.6,0.4-2,0.1-3c-0.5-1.4-1-1.5-2.3-0.4
				c-0.9,0.8-1.7,2.1-1.7,2.9C121.9,372.1,124.8,372.4,125.9,370.7z M116.2,370.3c0.9-1.1,1-1.8,0.1-2.4c-1.8-1.1-4.5,0.2-4.5,2.2
				C111.8,372.3,114.4,372.4,116.2,370.3z M102.9,372.7c1.8-0.6,3.8-4,2.9-4.9c-1.4-1.4-4.2,0.6-4.2,3
				C101.6,372.1,102.2,373,102.9,372.7z M92.1,371.8c1.9,0,3.3-2.7,2.3-4.4c-1.1-1.8-4-0.1-4,2.3C90.3,370.9,91.1,371.8,92.1,371.8z
				 M84.7,368.9c0-0.9-1-1.5-2.3-1.5c-2.2,0-3.2,3.2-1.5,4.9C82,373.2,84.7,370.8,84.7,368.9z M73.2,371.6c2-2,1.6-4.3-0.8-4.3
				c-2,0-4,3.7-2.6,5C70.8,373.3,71.7,373.1,73.2,371.6z"/>
			<path d="M125.9,367.7c0.4,1,0.3,2.3-0.1,3c-1.1,1.7-4,1.4-4-0.4c0-0.9,0.8-2.2,1.7-2.9C124.9,366.2,125.4,366.3,125.9,367.7z"/>
			<path d="M116.3,367.9c0.9,0.5,0.9,1.2-0.1,2.4c-1.8,2.1-4.4,2-4.4-0.1C111.8,368.1,114.5,366.8,116.3,367.9z"/>
			<path d="M105.9,367.8c0.9,0.9-1.1,4.3-2.9,4.9c-0.7,0.3-1.3-0.6-1.3-1.9C101.6,368.4,104.4,366.4,105.9,367.8z"/>
			<path d="M94.4,367.4c1.1,1.7-0.3,4.4-2.3,4.4c-0.9,0-1.7-1-1.7-2.1C90.3,367.3,93.3,365.7,94.4,367.4z"/>
			<path d="M82.5,367.3c1.2,0,2.3,0.7,2.3,1.5c0,1.9-2.8,4.3-3.8,3.3C79.3,370.5,80.3,367.3,82.5,367.3z"/>
			<path d="M72.4,367.3c2.4,0,2.8,2.3,0.8,4.3c-1.5,1.5-2.4,1.7-3.4,0.7C68.5,371,70.4,367.3,72.4,367.3z"/>
		</g>
		<g>
		</g>
	</g>
</g>
</svg>
